<svg width="141" height="110" viewBox="0 0 141 110" fill="none" xmlns="http://www.w3.org/2000/svg">
<path d="M24.5756 1.50825C24.5756 1.50825 25.0539 1.57644 26.0684 1.83369C26.9935 2.05943 28.4283 2.26399 30.1577 2.77331C31.9185 3.19328 34.0946 3.86015 36.5702 4.53219C37.7319 4.94181 39.0723 5.41445 40.4441 5.79774C41.7845 6.27038 43.1827 6.86389 44.7018 7.39955C47.5876 8.61808 50.7414 9.93113 53.8586 11.6331C57.0967 13.2773 60.3296 15.221 63.5888 17.375C66.848 19.5289 70.1335 21.8931 73.4139 24.5569C76.6365 27.0998 79.733 30.0001 82.7086 32.9583C85.6842 35.9164 88.476 39.1112 91.0575 42.3323C93.639 45.5533 95.9788 48.8901 98.1083 52.2532C99.1284 53.919 100.149 55.5848 101.048 57.3085C101.979 58.9428 102.788 60.6349 103.63 62.2377C104.471 63.8405 105.102 65.4696 105.854 67.0409C106.486 68.67 107.059 70.1783 107.632 71.6865C108.116 73.1633 108.721 74.5821 109.026 75.9959C109.452 77.3517 109.789 78.6761 110.157 79.9111C110.436 81.1146 110.715 82.3181 110.936 83.4008C111.157 84.4834 111.289 85.5345 111.484 86.4069C111.678 87.2793 111.784 88.1203 111.831 88.8403C111.879 89.5603 111.958 90.191 112.01 90.6114C112.084 91.5417 112.195 92.083 112.195 92.083C112.216 92.5928 111.88 92.9766 111.338 93.0871C110.918 93.1398 110.503 92.8929 110.361 92.4409C110.361 92.4409 110.219 91.989 109.966 90.9957C109.682 90.0918 109.377 88.678 108.777 86.9596C108.493 86.0556 108.209 85.1517 107.867 84.1269C107.525 83.1022 107.125 81.9565 106.725 80.8108C105.957 78.4302 104.864 75.8341 103.775 72.9385C103.17 71.5196 102.565 70.1007 101.902 68.5609C101.208 67.1105 100.577 65.4814 99.7042 63.968C98.2001 60.8254 96.428 57.5883 94.4772 54.2883C93.9514 53.5 93.4571 52.6225 92.9312 51.8342C92.4054 51.046 91.9111 50.1684 91.296 49.3487C90.7702 48.5605 90.155 47.7407 89.6607 46.8632C89.0456 46.0434 88.5198 45.2552 87.9046 44.4355C85.5333 41.1881 82.9518 37.967 80.1864 34.9825C77.421 31.998 74.5662 28.9819 71.4645 26.3812C68.3944 23.6911 65.3506 21.2112 62.1229 18.9679C61.3238 18.3847 60.4932 17.8909 59.7836 17.3393C58.953 16.8455 58.2433 16.2938 57.4127 15.8C55.841 14.8439 54.2692 13.8878 52.7238 13.1419C49.6066 11.4399 46.5736 10.069 43.8087 8.79259C42.4105 8.19909 40.9808 7.69494 39.6404 7.22229C38.3 6.74965 37.049 6.30852 35.8559 5.98825C34.6627 5.66799 33.5011 5.25836 32.4866 5.00112C31.4722 4.74387 30.4577 4.48663 29.622 4.2924C27.8612 3.87244 26.4578 3.57851 25.5012 3.44213C24.5446 3.30575 24.0085 3.11669 24.0085 3.11669C23.5302 3.0485 23.2094 2.53353 23.2776 2.05523C23.5824 1.76082 24.0973 1.44007 24.5756 1.50825Z" fill="#D5D2F5"/>
<path d="M122.279 85.9938C121.874 86.8559 121.502 87.6286 121.097 88.4907C120.782 89.3843 120.409 90.157 120.094 91.0506C119.495 92.7484 118.954 94.567 118.624 96.3594C118.398 97.2844 118.293 98.1517 118.067 99.0768C117.963 99.944 117.826 100.901 117.721 101.768C117.569 103.623 117.449 105.389 117.418 107.187C117.403 108.085 116.641 108.821 115.742 108.806C115.353 108.769 114.996 108.643 114.759 108.459L114.522 108.275L112.541 106.773C111.92 106.253 111.3 105.733 110.59 105.181C109.97 104.661 109.35 104.141 108.729 103.62L106.868 102.06C105.628 101.02 104.418 99.89 103.209 98.7604C102.032 97.5414 100.943 96.3539 99.918 94.9876C99.5657 94.562 99.6969 93.905 100.18 93.6736C100.454 93.4686 100.785 93.3844 101.053 93.4789C101.857 93.7625 102.598 94.2248 103.371 94.5977C104.144 94.9707 104.885 95.433 105.537 95.8638C106.93 96.7569 108.291 97.7393 109.621 98.8111C110.862 99.8514 112.16 101.013 113.37 102.142C114.579 103.272 115.756 104.491 116.934 105.71L114.128 106.83C114.264 105.874 114.49 104.949 114.626 103.992C114.852 103.067 115.078 102.142 115.304 101.217C115.529 100.292 115.755 99.3665 115.981 98.4414C116.206 97.5163 116.522 96.6227 116.747 95.6977C116.973 94.7726 117.288 93.879 117.603 92.9854L118.549 90.3047C118.864 89.4111 119.089 88.486 119.494 87.6239L120.439 84.9432C120.597 84.4964 121.259 84.328 121.706 84.4856C122.179 84.8534 122.468 85.4577 122.279 85.9938C122.221 85.873 122.31 85.9045 122.279 85.9938Z" fill="#D5D2F5"/>
</svg>
