<svg width="599" height="472" viewBox="0 0 599 472" fill="none" xmlns="http://www.w3.org/2000/svg">
<g opacity="0.5">
<path opacity="0.5" d="M427.807 1.04013C425.458 1.00315 422.493 1.65648 420.681 4.90465C417.13 11.29 422.845 17.5707 419.898 24.3752C419.061 26.2269 417.74 27.8193 416.076 28.9855C413.228 31.0379 410.325 31.6481 407.446 32.8747C403.987 34.2526 401.125 36.8061 399.364 40.086C397.612 43.6289 397.017 47.6324 397.663 51.5316C398.23 54.9339 399.568 57.6335 400.671 60.5426C402.011 64.1452 402.979 67.8749 403.562 71.674C403.892 73.4453 403.987 75.2523 403.846 77.0485C403.524 79.3366 402.968 81.5857 402.187 83.7606L395.85 103.601C394.938 106.186 394.258 108.847 393.816 111.552C393.538 114.376 393.621 117.224 394.063 120.027C394.753 125.833 395.524 131.873 398.273 135.503C401.022 139.134 406.416 139.368 410.362 134.221C414.116 129.29 415.084 121.833 418.523 116.47C423.942 108.014 432.609 108.747 438.416 100.827C443.964 93.2339 443.878 82.2752 447.361 72.9313C449.826 66.2377 454.142 60.6043 457.051 54.1018C461.249 44.7271 462.211 34.1998 460.75 25.8914C459.444 18.5876 456.221 11.7618 451.411 6.1127C449.611 3.93082 447.65 1.90303 445.154 1.1819C442.497 0.392968 439.846 2.4146 437.109 2.5995C433.947 2.75975 430.994 1.08944 427.807 1.04013Z" fill="#6C63FF"/>
<path opacity="0.5" d="M442.7 1.10156C442.7 1.10156 427.412 89.6404 402.015 137.981" stroke="#535461" stroke-width="2" stroke-miterlimit="10"/>
<path opacity="0.5" d="M420.508 5.31152C420.508 5.31152 439.162 24.4184 432.023 50.8229" stroke="#535461" stroke-width="2" stroke-miterlimit="10"/>
<path opacity="0.5" d="M398.52 42.04C398.52 42.04 431.345 55.119 427.006 69.9854" stroke="#535461" stroke-width="2" stroke-miterlimit="10"/>
<path opacity="0.5" d="M460.848 25.6943C460.848 25.6943 446.214 31.6545 431.049 54.7306" stroke="#535461" stroke-width="2" stroke-miterlimit="10"/>
<path opacity="0.5" d="M438.2 100.92C438.2 100.92 428.294 104.359 423.233 83.0459" stroke="#535461" stroke-width="2" stroke-miterlimit="10"/>
<path opacity="0.5" d="M396.991 102.948C396.991 102.948 416.051 105.487 418.887 96.7842" stroke="#535461" stroke-width="2" stroke-miterlimit="10"/>
</g>
<g opacity="0.5">
<path opacity="0.5" d="M62.3966 110.627C61.0774 112.575 59.9925 115.404 61.7185 118.702C65.1089 125.173 73.4926 123.842 77.5673 130.036C78.6561 131.753 79.2629 133.731 79.3242 135.762C79.4783 139.269 78.3933 142.03 77.8324 145.118C77.0916 148.76 77.6568 152.546 79.429 155.812C81.4292 159.218 84.4477 161.91 88.0592 163.51C91.2154 164.903 94.2237 165.261 97.2442 165.939C100.991 166.798 104.641 168.037 108.137 169.637C109.798 170.333 111.361 171.245 112.785 172.349C114.521 173.873 116.098 175.57 117.488 177.415L130.6 193.601C132.266 195.783 134.123 197.812 136.148 199.665C138.358 201.448 140.786 202.941 143.373 204.109C148.606 206.717 154.081 209.385 158.624 209.083C163.167 208.781 166.323 204.399 164.172 198.272C162.137 192.442 156.405 187.53 153.803 181.711C149.704 172.54 155.073 165.686 151.639 156.502C148.348 147.676 139.119 141.759 133.226 133.697C128.997 127.941 126.643 121.272 122.802 115.262C117.254 106.633 108.994 100.032 101.226 96.6917C94.4013 93.7746 86.9234 92.7238 79.5584 93.6469C76.7474 93.9551 73.9796 94.479 71.9823 96.1616C69.8617 97.9491 70.133 101.29 68.7521 103.663C67.211 106.436 64.1904 107.989 62.3966 110.627Z" fill="#6C63FF"/>
<path opacity="0.5" d="M70.6261 98.2139C70.6261 98.2139 136.265 159.572 162.735 207.345" stroke="#535461" stroke-width="2" stroke-miterlimit="10"/>
<path opacity="0.5" d="M61.9713 119.072C61.9713 119.072 88.201 113.974 106.355 134.419" stroke="#535461" stroke-width="2" stroke-miterlimit="10"/>
<path opacity="0.5" d="M80.6125 157.593C80.6125 157.593 109.585 137.334 119.609 149.118" stroke="#535461" stroke-width="2" stroke-miterlimit="10"/>
<path opacity="0.5" d="M101.152 96.5747C101.152 96.5747 98.1011 112.082 109.08 137.414" stroke="#535461" stroke-width="2" stroke-miterlimit="10"/>
<path opacity="0.5" d="M151.621 156.736C151.621 156.736 149.056 166.906 128.443 159.43" stroke="#535461" stroke-width="2" stroke-miterlimit="10"/>
<path opacity="0.5" d="M130.699 192.306C130.699 192.306 143.28 177.766 137.56 170.629" stroke="#535461" stroke-width="2" stroke-miterlimit="10"/>
</g>
<path d="M50.0615 39.4574C46.9793 43.1001 44.0943 48.1418 46.3628 53.1158C50.7643 62.8603 66.909 58.1082 72.6727 67.1932C74.3988 69.9113 74.633 73.2335 74.2323 76.1981C73.4556 81.998 70.583 86.9226 68.598 92.2232C66.6131 97.5238 65.5836 103.934 68.3823 109.53C71.0761 114.948 76.7536 118.369 82.2523 119.731C87.751 121.093 93.262 120.785 98.7545 120.964C105.28 121.22 111.759 122.174 118.08 123.811C120.862 124.411 123.53 125.451 125.983 126.893C128.788 128.687 131.056 131.318 133.275 133.907L153.002 156.891C155.622 159.972 158.297 163.054 161.546 165.316C165.294 167.923 169.559 169.249 173.757 170.524C182.788 173.286 192.251 176.072 200.881 174.179C209.511 172.287 216.755 164.04 214.597 154.493C212.544 145.402 203.285 138.955 200.166 130.049C195.234 116.014 207.409 102.997 203.754 88.7162C200.252 75.0209 184.73 67.9575 176.1 56.3639C169.936 48.0555 167.507 37.6638 162.119 28.8254C154.358 16.0916 140.821 7.64139 127.29 4.43637C113.759 1.23135 100.154 2.77839 87.4921 5.97108C82.129 7.33322 76.7659 9.05283 72.5125 12.4551C67.9939 16.0731 67.4699 21.5586 64.1781 25.9285C60.3623 31.0196 54.2164 34.5205 50.0615 39.4574Z" fill="#6C63FF"/>
<path d="M69.2638 16.2827C69.2638 16.2827 173.856 98.5656 209.049 170.099" stroke="#535461" stroke-width="2" stroke-miterlimit="10"/>
<path d="M46.6957 53.6517C46.6957 53.6517 97.4724 37.2075 125.323 65.7568" stroke="#535461" stroke-width="2" stroke-miterlimit="10"/>
<path d="M69.9974 112.168C69.9974 112.168 130.477 69.6401 145.765 86.2261" stroke="#535461" stroke-width="2" stroke-miterlimit="10"/>
<path d="M127.074 4.25146C127.074 4.25146 116.65 30.9949 129.54 69.8682" stroke="#535461" stroke-width="2" stroke-miterlimit="10"/>
<path d="M203.544 89.1782C203.544 89.1782 195.647 106.886 159.222 100.692" stroke="#535461" stroke-width="2" stroke-miterlimit="10"/>
<path d="M153.483 154.777C153.483 154.777 181.512 126.745 172.944 116.563" stroke="#535461" stroke-width="2" stroke-miterlimit="10"/>
<path opacity="0.1" d="M299.5 472C464.909 472 599 460.664 599 446.681C599 432.697 464.909 421.361 299.5 421.361C134.091 421.361 0 432.697 0 446.681C0 460.664 134.091 472 299.5 472Z" fill="#6C63FF"/>
<path d="M532.011 247.051C530.735 243.316 528.892 238.582 527.437 237.466C527.348 237.395 527.251 237.335 527.147 237.288H526.968V232.671L523.529 233.22C522.982 231.552 522.57 229.843 522.296 228.11C522.627 228.442 523.049 228.668 523.509 228.76C523.968 228.852 524.445 228.806 524.879 228.628C524.823 228.535 524.774 228.437 524.724 228.338L524.879 228.27C524.337 227.315 524.05 226.237 524.046 225.139C524.074 224.137 524.233 223.142 524.521 222.181C525.137 220.054 526.179 218.07 526.759 215.931C527.129 214.555 527.303 213.134 527.277 211.709C527.296 209.294 526.747 206.908 525.674 204.744C525.402 204.119 524.979 203.573 524.441 203.154C523.957 202.886 523.459 202.643 522.949 202.427C522.094 201.851 521.357 201.117 520.779 200.263C518.336 197.288 515.064 195.104 511.378 193.989C510.418 193.63 509.376 193.547 508.37 193.749C506.058 194.365 505.22 197.231 503.346 198.735C501.694 200.06 499.426 200.196 497.348 200.639C495.271 201.083 493.181 201.965 491.763 203.567C490.786 204.684 490.253 206.12 490.265 207.604C490.208 208.297 490.33 208.993 490.62 209.626C490.909 210.258 491.356 210.806 491.917 211.216C492.557 211.635 493.282 211.908 494.04 212.015C494.797 212.121 495.569 212.059 496.3 211.832C495.729 213.805 495.572 215.875 495.838 217.911C496.105 219.948 496.789 221.907 497.849 223.667C498.909 225.426 500.321 226.947 501.997 228.135C503.673 229.323 505.576 230.152 507.587 230.569L507.988 231.29C509.227 233.597 510.167 236.051 510.787 238.594C507.618 240.388 504.16 242.07 502.07 242.231C501.986 243.047 501.833 243.856 501.614 244.647C501.125 246.631 500.187 248.476 498.871 250.04C496.029 253.233 483.25 277.369 483.25 277.369C483.25 277.369 482.849 278.33 482.19 279.97C474.256 280.944 461.305 282.349 457.692 281.628L443.514 268.142C443.514 268.142 438.928 271.643 439.328 275.896L436.807 273.467C436.807 273.467 423.319 283.76 444.617 290.503L477.024 294.263C473.942 303.576 471.057 314.418 471.951 320.316H472.216C472.835 320.316 473.453 320.268 474.065 320.174L474.009 321.222L470.872 377.119C470.872 377.119 470.163 387.412 479.749 392.022C479.749 392.022 491.461 426.446 486.85 430.353C486.85 430.353 487.399 430.643 488.323 431.044L478.688 439.58C478.688 439.58 471.587 441.355 467.685 440.998C466.999 440.904 466.303 441.065 465.728 441.452C465.154 441.838 464.743 442.423 464.572 443.093C464.572 443.167 464.572 443.241 464.535 443.315V443.408C464.535 443.482 464.535 443.556 464.535 443.636C464.535 443.716 464.535 443.691 464.535 443.722C464.535 443.753 464.535 443.851 464.535 443.919C464.535 443.987 464.535 443.975 464.535 443.999C464.535 444.024 464.535 444.153 464.578 444.227V444.314C464.598 444.396 464.625 444.478 464.658 444.56L464.689 444.634C464.72 444.714 464.757 444.794 464.8 444.875V444.93C464.843 445.01 464.892 445.084 464.942 445.164L464.985 445.232C465.042 445.314 465.106 445.396 465.176 445.479L465.231 445.54C465.305 445.626 465.385 445.707 465.466 445.787L465.503 445.818L465.768 446.046L465.823 446.089C465.922 446.169 466.033 446.243 466.144 446.317L466.218 446.366C466.335 446.44 466.458 446.514 466.587 446.582H466.643L467.044 446.779H467.099L467.568 446.964L467.666 447.001L468.178 447.167H468.264L468.825 447.315H468.868L469.485 447.439H469.608L470.274 447.537H470.403L471.155 447.611C472.616 447.722 474.583 447.765 476.857 447.753C476.857 447.753 476.857 447.808 476.857 447.839C476.857 447.87 476.857 447.969 476.857 448.036V448.117C476.857 448.191 476.857 448.271 476.901 448.345V448.431C476.921 448.513 476.948 448.595 476.981 448.677L477.012 448.751C477.042 448.832 477.079 448.912 477.123 448.992V449.047C477.166 449.127 477.215 449.201 477.264 449.281L477.307 449.349C477.365 449.431 477.429 449.514 477.499 449.596L477.554 449.657C477.628 449.744 477.708 449.824 477.788 449.904L477.825 449.935L478.09 450.163L478.146 450.206C478.244 450.286 478.355 450.36 478.466 450.434L478.547 450.483C478.664 450.557 478.787 450.631 478.916 450.699H478.972L479.373 450.896H479.428L479.897 451.081L479.995 451.118L480.507 451.285H480.593L481.154 451.433H481.197L481.814 451.556H481.937L482.603 451.654H482.732L483.484 451.728C492.731 452.437 522.172 450.311 522.172 450.311V450.231V450.126C522.462 448.751 523.88 440.763 518.85 434.859C518.998 434.705 519.146 434.538 519.281 434.366C519.281 434.366 515.379 427.623 517.506 425.49C519.633 423.358 506.86 386.451 506.86 386.451C506.86 386.451 500.116 375.806 504.018 363.738C507.92 351.67 503.661 338.542 503.661 338.542C503.661 338.542 512.969 335.774 513.16 324.316C513.16 323.971 513.16 323.614 513.16 323.25C513.364 323.279 513.57 323.292 513.776 323.287C513.908 323.296 514.04 323.296 514.171 323.287C514.171 323.287 512.396 316.902 514.528 312.285C516.661 307.669 521.272 311.928 525.532 293.123C528.614 279.514 531.327 263.858 532.59 256.24C533.137 253.175 532.938 250.023 532.011 247.051ZM451.004 286.978L447.767 283.896C448.84 284.34 450.03 284.777 451.361 285.197L463.567 286.614C458.118 287.107 453.057 287.385 451.004 286.978Z" fill="url(#paint0_linear)"/>
<path d="M481.9 285.178C481.9 285.178 456.792 288.667 451.559 287.644L437.584 274.355C437.584 274.355 424.33 284.469 445.259 291.089L484.341 295.656L481.9 285.178Z" fill="#FDC2CC"/>
<path opacity="0.05" d="M481.9 285.178C481.9 285.178 456.792 288.667 451.559 287.644L437.584 274.355C437.584 274.355 424.33 284.469 445.259 291.089L484.341 295.656L481.9 285.178Z" fill="black"/>
<path d="M490.968 426.723L478.762 437.533C478.762 437.533 471.79 439.278 467.95 438.926C464.109 438.575 462.371 444.856 471.439 445.552C480.507 446.249 509.449 444.159 509.449 444.159C509.449 444.159 512.241 433.003 503.87 426.723H490.968Z" fill="#47465A"/>
<path opacity="0.05" d="M490.968 426.723L478.762 437.533C478.762 437.533 471.79 439.278 467.95 438.926C464.109 438.575 462.371 444.856 471.439 445.552C480.507 446.249 509.449 444.159 509.449 444.159C509.449 444.159 512.241 433.003 503.87 426.723H490.968Z" fill="black"/>
<path opacity="0.3" d="M509.887 439.333C509.866 440.604 509.719 441.87 509.449 443.112C509.449 443.112 480.476 445.201 471.439 444.505C467.081 444.172 465.225 442.545 464.892 440.985C464.498 442.773 466.076 445.14 471.439 445.552C480.507 446.249 509.449 444.16 509.449 444.16C509.788 442.574 509.935 440.954 509.887 439.333Z" fill="white"/>
<path d="M505.263 229.028C505.263 229.028 512.938 239.839 510.146 247.161C507.353 254.483 524.792 239.488 524.792 239.488C524.792 239.488 519.213 229.725 522 219.265L505.263 229.028Z" fill="#FDC2CC"/>
<path d="M503.174 430.908L490.968 441.731C490.968 441.731 483.996 443.475 480.155 443.124C476.315 442.772 474.57 449.041 483.645 449.743C492.719 450.446 521.655 448.35 521.655 448.35C521.655 448.35 524.447 437.194 516.076 430.914L503.174 430.908Z" fill="#47465A"/>
<path d="M506.663 428.467C504.844 430.71 502.28 431.549 499.598 431.703C493.501 431.992 486.788 428.467 486.788 428.467C491.319 424.633 479.816 390.808 479.816 390.808C470.403 386.278 471.1 376.163 471.1 376.163L474.182 321.265L474.953 307.477L484.717 301.548L492.417 307.453L499.715 313.055C500.19 314.837 500.495 316.659 500.628 318.498C501.472 331.311 491.344 334.325 491.344 334.325C491.344 334.325 495.53 347.226 491.695 359.078C487.861 370.93 494.488 381.39 494.488 381.39C494.488 381.39 507.045 417.65 504.967 419.745C502.89 421.841 506.663 428.467 506.663 428.467Z" fill="#565171"/>
<path opacity="0.05" d="M506.663 428.467C504.844 430.71 502.28 431.549 499.598 431.703C493.501 431.992 486.788 428.467 486.788 428.467C491.319 424.633 479.816 390.808 479.816 390.808C470.403 386.278 471.1 376.163 471.1 376.163L474.182 321.265L474.953 307.477L484.717 301.548L492.417 307.453L499.715 313.055C500.19 314.837 500.495 316.659 500.628 318.498C501.472 331.311 491.344 334.325 491.344 334.325C491.344 334.325 495.53 347.226 491.695 359.078C487.861 370.93 494.488 381.39 494.488 381.39C494.488 381.39 507.045 417.65 504.967 419.745C502.89 421.841 506.663 428.467 506.663 428.467Z" fill="black"/>
<path d="M518.868 432.652C512.938 439.974 498.994 432.652 498.994 432.652C499.278 432.394 499.491 432.067 499.61 431.703C502.169 424.75 490.98 391.511 490.98 391.511C481.567 386.98 480.501 376.17 480.501 376.17L478.035 320.297L477.714 313.062L492.386 307.459L496.892 305.739L511.89 317.228C512.539 319.604 512.863 322.057 512.852 324.519C512.667 335.793 503.543 338.511 503.543 338.511C503.543 338.511 507.729 351.411 503.895 363.263C500.06 375.116 506.687 385.575 506.687 385.575C506.687 385.575 519.244 421.835 517.167 423.931C515.089 426.026 518.868 432.652 518.868 432.652Z" fill="#565171"/>
<path opacity="0.1" d="M512.852 324.532C509.837 324.101 503.734 320.47 500.597 318.498C499.401 317.746 498.636 317.265 498.636 317.265C498.636 317.265 495.499 308.55 487.127 315.176C484.405 317.384 481.332 319.119 478.035 320.31C476.774 320.756 475.474 321.082 474.151 321.284L474.922 307.496L484.686 301.567L492.386 307.472L496.892 305.752L511.89 317.228C512.54 319.608 512.864 322.065 512.852 324.532Z" fill="black"/>
<path d="M531.727 257.645C530.494 265.128 527.819 280.506 524.792 293.881C520.607 312.371 516.076 308.174 513.98 312.71C511.884 317.246 513.628 323.521 513.628 323.521C510.139 323.872 498.63 316.199 498.63 316.199C498.63 316.199 495.493 307.483 487.121 314.109C478.75 320.735 472.123 320.384 472.123 320.384C470.379 308.876 483.281 278.194 483.281 278.194C483.281 278.194 495.85 254.483 498.612 251.346C499.905 249.809 500.826 247.996 501.306 246.046C501.52 245.268 501.668 244.475 501.75 243.673C506.28 243.321 517.444 235.66 517.444 235.66L526.161 234.267V238.797C526.262 238.843 526.357 238.901 526.444 238.97C527.881 240.067 529.687 244.72 530.938 248.388C531.959 251.362 532.23 254.542 531.727 257.645Z" fill="#F68080"/>
<path opacity="0.1" d="M524.792 243.328C524.792 243.328 515.724 236.005 502.126 259.716C488.527 283.427 485.389 279.588 485.389 279.588C485.389 279.588 488.182 290.066 486.782 292.143C486.782 292.143 496.195 291.446 499.684 292.143C503.174 292.839 524.792 265.64 524.792 265.64C524.792 265.64 535.956 250.299 524.792 243.328Z" fill="black"/>
<path opacity="0.1" d="M524.447 241.929C524.447 241.929 515.379 234.637 501.78 258.318C488.182 281.998 485.05 278.195 485.05 278.195C485.05 278.195 495.85 290.047 499.339 290.725C502.828 291.403 524.447 264.222 524.447 264.222C524.447 264.222 535.599 248.906 524.447 241.929Z" fill="black"/>
<path opacity="0.1" d="M486.462 289.874C486.603 287.292 485.63 282.749 485.069 280.395C487.189 280.118 488.527 279.933 488.527 279.933L490.993 290.411L486.462 289.874Z" fill="black"/>
<path opacity="0.1" d="M522.351 219.962L505.615 229.706C506.319 230.736 506.969 231.802 507.563 232.899C508.528 233.096 509.511 233.195 510.497 233.195C514.966 233.195 517.05 228.505 519.744 225.349C519.571 222.834 521.605 222.772 522.351 219.962Z" fill="black"/>
<path d="M510.152 232.517C518.241 232.517 524.798 225.96 524.798 217.873C524.798 209.785 518.241 203.228 510.152 203.228C502.063 203.228 495.505 209.785 495.505 217.873C495.505 225.96 502.063 232.517 510.152 232.517Z" fill="#FDC2CC"/>
<path opacity="0.1" d="M491.621 206.026C493.1 204.511 495.021 203.503 497.108 203.148C499.142 202.71 501.374 202.574 503.001 201.299C504.85 199.826 505.664 197.027 507.932 196.405C508.919 196.206 509.942 196.288 510.885 196.639C514.51 197.732 517.728 199.878 520.132 202.803C520.698 203.641 521.42 204.363 522.259 204.929C522.76 205.141 523.25 205.38 523.726 205.644C524.248 206.056 524.659 206.592 524.922 207.203C526.557 210.505 526.934 214.289 525.982 217.848C525.415 219.949 524.392 221.897 523.787 224.011C523.183 226.125 523.029 228.474 524.139 230.341C523.066 230.89 521.71 230.199 521.057 229.201C520.403 228.202 520.181 226.97 519.824 225.817C519.126 223.55 517.819 221.518 516.045 219.943C514.948 218.969 512.963 218.316 512.217 219.573C511.921 220.06 511.939 220.677 511.687 221.182C511.187 222.168 509.745 222.365 508.789 221.798C507.868 221.163 507.221 220.203 506.977 219.111C505.541 214.254 503.093 211.197 497.897 213.274C495.961 214.051 493.68 214.575 491.819 213.244C489.365 211.487 489.864 208.011 491.621 206.026Z" fill="black"/>
<path d="M491.621 205.669C493.1 204.153 495.021 203.145 497.108 202.79C499.142 202.353 501.374 202.217 503.001 200.941C504.85 199.468 505.664 196.67 507.932 196.047C508.919 195.849 509.942 195.93 510.885 196.282C514.51 197.375 517.728 199.52 520.132 202.445C520.698 203.283 521.42 204.005 522.259 204.571C522.76 204.784 523.25 205.022 523.726 205.286C524.248 205.699 524.659 206.235 524.922 206.846C526.557 210.147 526.934 213.931 525.982 217.49C525.415 219.592 524.392 221.54 523.787 223.654C523.183 225.768 523.029 228.116 524.139 229.984C523.066 230.532 521.71 229.842 521.057 228.843C520.403 227.845 520.181 226.612 519.824 225.46C519.126 223.192 517.819 221.161 516.045 219.586C514.948 218.612 512.963 217.959 512.217 219.216C511.921 219.703 511.939 220.319 511.687 220.825C511.187 221.811 509.745 222.008 508.789 221.441C507.868 220.805 507.221 219.846 506.977 218.754C505.541 213.897 503.093 210.84 497.897 212.917C495.961 213.693 493.68 214.217 491.819 212.886C489.365 211.136 489.864 207.666 491.621 205.669Z" fill="#B96B6B"/>
<path opacity="0.05" d="M526.475 238.951H519.386C519.386 238.951 505.436 245.922 505.091 245.577C504.856 245.343 502.699 245.744 501.33 246.033C501.544 245.256 501.693 244.462 501.774 243.66C506.305 243.309 517.469 235.648 517.469 235.648L526.185 234.255V238.785C526.289 238.828 526.386 238.884 526.475 238.951Z" fill="black"/>
<path opacity="0.3" d="M522.092 443.519C522.072 444.789 521.925 446.055 521.655 447.297C521.655 447.297 492.682 449.386 483.645 448.69C479.286 448.357 477.431 446.73 477.098 445.17C476.703 446.958 478.281 449.325 483.645 449.738C492.712 450.434 521.655 448.345 521.655 448.345C521.994 446.759 522.141 445.139 522.092 443.519Z" fill="white"/>
<g opacity="0.05">
<path opacity="0.05" d="M483.817 313.758C479.114 317.456 474.953 319.003 472.222 319.62C472.222 319.879 472.271 320.138 472.308 320.384C472.308 320.384 478.935 320.735 487.306 314.11C488.603 312.999 490.135 312.198 491.788 311.767C489.982 310.898 487.356 310.954 483.817 313.758Z" fill="black"/>
<path opacity="0.05" d="M531.142 248.382C529.909 244.684 528.059 240.061 526.648 238.964C526.561 238.895 526.466 238.837 526.364 238.792C526.364 238.792 523.479 238.89 523.572 238.964C525.008 240.061 526.401 244.363 527.653 248.031C528.661 251.003 528.922 254.179 528.411 257.276C527.178 264.758 524.503 280.136 521.476 293.511C517.29 312.002 512.759 307.804 510.663 312.341C508.95 316.039 509.807 320.933 510.176 322.578C511.668 323.195 512.963 323.583 513.801 323.497C513.801 323.497 512.057 317.222 514.152 312.686C516.248 308.149 520.779 312.335 524.965 293.856C527.992 280.488 530.655 265.104 531.9 257.621C532.41 254.526 532.149 251.353 531.142 248.382Z" fill="black"/>
</g>
<path d="M175.2 442.224C175.2 442.224 167.186 442.779 162.193 434.212C161.225 432.481 160.08 430.856 158.778 429.361C157.179 426.74 156.348 423.722 156.38 420.652C156.657 414.291 150.018 379.43 150.018 379.43C150.018 379.43 150.85 366.148 144.205 357.858C139.834 352.397 133.547 336.742 129.756 326.683C130.011 326.91 130.318 327.071 130.649 327.151L130.495 326.282L130.649 326.319L128.714 315.527C125.861 312.246 123.456 308.6 121.563 304.685L122.007 304.593L127.882 303.36C127.882 303.36 137.43 289.801 138.016 283.119L138.793 283.156H139.89C152.04 282.891 166.342 284.543 166.342 284.543C166.342 284.5 166.274 284.327 166.2 284.056C165.829 282.713 165.543 281.349 165.343 279.97L165.892 279.933L171.329 279.569C171.329 279.569 190.143 258.545 183.226 254.669C176.31 250.792 169.116 272.099 169.116 272.099L166.792 272.524L166.175 272.641C166.237 272.549 166.298 272.463 166.372 272.376C166.446 272.29 135.655 270.996 130.951 263.525C130.951 263.525 117.39 252.733 116.841 245.54C116.545 241.725 114.153 239.697 111.965 238.637C110.291 237.84 108.438 237.494 106.59 237.633L100.24 238.07L100.69 238.871H100.511C100.113 237.959 99.7797 237.02 99.5127 236.061H99.6422C99.5991 235.864 99.5559 235.666 99.5189 235.445C101.465 234.985 103.298 234.14 104.912 232.96C106.525 231.779 107.885 230.287 108.911 228.572C109.937 226.856 110.608 224.952 110.885 222.972C111.162 220.993 111.039 218.978 110.522 217.046C111.138 217.126 111.762 217.109 112.372 216.997C114.702 216.516 116.36 214.15 116.422 211.771C116.422 211.616 116.422 211.462 116.422 211.308C116.422 211.308 116.422 211.247 116.422 211.216C116.399 210.024 116.11 208.852 115.577 207.786C115.044 206.72 114.28 205.786 113.34 205.052C112.07 203.998 110.559 203.246 109.407 202.075C108.038 200.676 107.292 198.803 106.226 197.145C104.448 194.418 101.809 192.364 98.7299 191.308C96.4367 190.531 93.6319 190.445 91.875 192.109C90.9688 192.966 90.4448 194.192 89.4092 194.913C87.9482 195.955 85.9633 195.647 84.1756 195.856C80.9331 196.238 78.0851 198.55 76.655 201.49C75.778 203.347 75.3554 205.385 75.4221 207.438C75.4025 208.846 75.5704 210.252 75.9214 211.616C76.2666 212.979 76.7782 214.291 77.1543 215.641C77.931 218.452 78.1098 221.41 79.0036 224.19C79.6092 226.247 80.8156 228.075 82.468 229.441L82.203 230.588C82.0304 230.625 77.7214 231.549 74.7378 238.058C72.383 243.186 64.4185 248.487 60.9171 250.625C60.2639 251.025 59.6968 251.551 59.2491 252.172C58.8014 252.793 58.482 253.497 58.3095 254.243C57.9733 255.752 57.8242 257.296 57.8657 258.841C57.8041 262.176 58.4821 266.786 61.1822 272.635C67.2727 285.918 71.6987 291.742 71.6987 291.742C71.6987 291.742 72.0378 295.81 72.0563 300.1C72.0563 303.292 71.822 306.473 71.1439 308.063C70.5706 309.407 70.3919 312.84 70.4042 316.754C70.4042 324.267 71.1439 334.073 71.1439 334.073C71.1439 334.073 73.2583 334.474 76.5378 334.954L78.5783 370.82C78.8345 375.163 77.4408 379.442 74.6762 382.802C73.2395 384.564 71.5821 386.134 69.7446 387.474C63.9315 391.622 51.4793 435.339 51.4793 435.339C51.4793 435.339 52.0958 435.376 53.0944 435.457L49.2663 446.132C49.2663 446.132 64.5541 457.842 73.8625 454.644C74.8567 454.32 75.8997 454.172 76.9447 454.206C78.794 454.206 82.7085 452.758 80.5201 450.841C76.544 447.365 71.7789 442.101 68.5919 438.44C68.8924 438.585 69.181 438.754 69.4549 438.945V438.859L69.5843 438.945C69.5843 438.945 69.6152 438.514 69.683 437.817L69.5473 437.774C69.8309 434.896 70.7186 427.66 72.4878 426.772C74.7008 425.663 91.0243 393.298 91.0243 393.298L107.348 351.245C107.348 351.245 120.355 373.655 131.42 377.526V386.876C131.42 386.876 137.51 414.544 139.723 417.589C141.937 420.633 139.723 432.806 139.723 432.806C140.161 433.307 140.663 433.749 141.215 434.119L139.446 444.147C139.446 444.147 152.176 443.592 173.757 450.237C173.813 450.249 182.116 446.662 175.2 442.224ZM124.282 297.505L121.588 298.177L121.058 298.312C121.002 297.98 120.965 297.782 120.965 297.782C120.348 298.059 119.686 298.22 119.011 298.257C118.056 295.232 117.505 292.094 117.371 288.925C117.371 288.925 115.805 282.534 115.719 277.369C115.75 275.353 116.052 273.597 116.816 272.604L117.716 272.678L118.333 273.295L118.376 273.338L118.697 273.628L119.029 273.93L119.085 273.979L119.449 274.293L119.51 274.349L119.88 274.663L119.917 274.694L120.33 275.033L120.423 275.107L120.86 275.458H120.897L121.329 275.797L121.427 275.871L121.902 276.235L122.001 276.309L122.457 276.641L122.537 276.697L123.055 277.067L123.178 277.153L123.721 277.529L123.77 277.56L124.3 277.911L124.429 277.997L125.003 278.361L125.126 278.435L125.662 278.762L125.761 278.823L126.377 279.181L126.525 279.267L127.142 279.625H127.191L127.808 279.951L127.962 280.031L128.615 280.358L128.751 280.42L129.367 280.703L129.484 280.759L130.169 281.055L130.335 281.122L131.05 281.406C126.55 286.207 124.282 297.505 124.282 297.505Z" fill="url(#paint1_linear)"/>
<path d="M56.0349 428.861L50.8999 443.179C50.8999 443.179 64.961 453.959 74.0967 451.728C75.4728 451.386 76.8749 451.159 78.2886 451.05C80.1811 450.908 83.4359 449.534 81.4263 447.777C74.9413 442.107 66.2987 431.573 66.2987 431.573L56.0349 428.861Z" fill="#4F4D59"/>
<path d="M141.4 427.506L138.971 441.281C138.971 441.281 151.399 440.739 172.469 447.223C172.469 447.223 180.575 443.71 173.819 439.389C173.819 439.389 165.984 439.931 161.12 431.555C156.257 423.179 153.285 424.264 153.285 424.264L141.4 427.506Z" fill="#4F4D59"/>
<path d="M77.105 327.57L79.4844 369.482C79.7394 373.949 78.2573 378.342 75.3481 381.741C74.0329 383.302 72.5344 384.699 70.885 385.902C65.2137 389.951 53.0574 432.627 53.0574 432.627C53.0574 432.627 66.835 433.435 70.6138 436.141C70.6138 436.141 71.4213 425.336 73.5851 424.257C75.7488 423.179 91.6839 391.591 91.6839 391.591L107.631 350.511C107.631 350.511 120.33 372.391 131.136 376.17V385.353C131.136 385.353 137.079 412.362 139.243 415.333C141.406 418.303 139.243 430.187 139.243 430.187C139.243 430.187 145.456 438.021 159.77 429.644C159.77 429.644 155.178 424.51 155.455 418.297C155.733 412.084 149.241 378.056 149.241 378.056C149.241 378.056 150.049 365.112 143.57 356.989C137.091 348.865 126.279 317.844 126.279 317.844L118.844 301.85L77.105 327.57Z" fill="#787C9C"/>
<g opacity="0.1">
<path opacity="0.1" d="M55.628 432.64C55.628 432.64 67.7843 389.964 73.4556 385.914C75.1991 384.64 76.7752 383.151 78.1468 381.483C80.9219 378.129 82.3169 373.845 82.0489 369.501L79.6694 327.589L119.498 303.021L118.955 301.856L77.2283 327.571L79.6077 369.482C79.8858 373.828 78.4995 378.116 75.7303 381.477C74.3587 383.145 72.7826 384.634 71.0391 385.908C65.3678 389.958 53.2115 432.634 53.2115 432.634C53.2115 432.634 66.9891 433.441 70.7679 436.147C70.7679 436.147 70.7987 435.728 70.8665 435.044C65.5405 433.225 55.628 432.64 55.628 432.64Z" fill="black"/>
<path opacity="0.1" d="M141.807 430.212C141.807 430.212 143.971 418.328 141.807 415.358C139.643 412.387 133.676 385.372 133.676 385.372V376.188C122.894 372.41 110.196 350.511 110.196 350.511L109.253 352.977C112.914 358.783 122.685 373.199 131.266 376.201V385.384C131.266 385.384 137.208 412.393 139.372 415.364C141.536 418.334 139.372 430.218 139.372 430.218C139.372 430.218 142.386 434.008 149.044 433.497C144.082 433.102 141.807 430.212 141.807 430.212Z" fill="black"/>
</g>
<path d="M170.046 280.574L164.739 280.925L161.94 281.11V274.33L165.639 273.665L167.914 273.252C167.914 273.252 174.935 252.456 181.691 256.234C188.447 260.012 170.046 280.574 170.046 280.574Z" fill="#714B4F"/>
<path d="M84.94 224.936C84.94 224.936 81.4263 238.44 80.3475 246.816C79.2687 255.193 105.468 248.437 105.468 248.437C105.468 248.437 95.475 236.283 101.153 229.799L84.94 224.936Z" fill="#714B4F"/>
<path d="M113.334 281.116L113.876 286.25L105.505 285.708L97.0963 278.398L88.725 254.915L83.3249 246.545L79.2687 241.417L80.89 235.204C80.89 235.204 81.6297 235.82 82.8811 236.807C86.9928 239.956 96.6463 246.496 103.698 244.69C104.025 244.608 104.346 244.508 104.66 244.388L115.183 262.478L113.334 281.116Z" fill="#E6E6F0"/>
<path opacity="0.1" d="M83.0475 233.577C83.0475 233.577 78.7324 234.385 75.755 240.869C73.468 245.855 65.7562 250.995 62.3103 253.109C61.6533 253.511 61.0836 254.04 60.6347 254.666C60.1857 255.292 59.8668 256.001 59.6966 256.752C59 259.834 58.7349 265.566 62.5199 273.825C68.4624 286.768 72.7837 292.463 72.7837 292.463C72.7837 292.463 73.8625 305.407 72.2412 309.21C70.62 313.012 72.2412 333.79 72.2412 333.79C72.2412 333.79 100.598 339.189 110.06 333.79C119.523 328.39 118.166 307.589 118.166 307.589C118.166 307.589 127.08 326.474 130.323 327.034L128.43 316.501C128.43 316.501 117.895 305.154 117.334 290.571C117.334 290.571 114.092 277.338 116.792 273.825C116.792 273.825 162.446 277.609 165.146 274.367C165.146 274.367 135.162 273.017 130.569 265.738C130.569 265.738 117.334 255.205 116.792 248.185C116.713 246.868 116.299 245.593 115.591 244.48C114.882 243.367 113.902 242.453 112.742 241.824C110.904 240.779 108.796 240.309 106.688 240.474L100.585 240.893C100.585 240.893 111.12 259.532 110.578 261.96C110.036 264.389 111.12 284.106 111.12 284.106C111.12 284.106 98.9888 257.886 93.6072 254.915C88.2257 251.944 81.9934 239.747 81.9934 239.747L83.0722 233.583" fill="black"/>
<path opacity="0.1" d="M113.334 281.116L113.876 286.25L105.505 285.708L97.0963 278.398L88.725 254.915L83.3249 246.545L79.2687 241.417L80.89 235.204C80.89 235.204 81.6297 235.82 82.8811 236.807L82.5112 238.952C82.5112 238.952 88.725 251.149 94.1251 254.12C99.5251 257.091 111.681 283.292 111.681 283.292C111.681 283.292 110.603 263.569 111.139 261.146C111.509 259.494 106.775 250.391 103.698 244.702C104.025 244.621 104.346 244.52 104.66 244.4L115.183 262.478L113.334 281.116Z" fill="black"/>
<path opacity="0.1" d="M164.727 280.931L161.928 281.116V274.336L165.627 273.67C164.326 275.39 164.369 278.398 164.727 280.931Z" fill="black"/>
<path d="M83.0475 232.788C83.0475 232.788 78.7324 233.595 75.755 240.08C73.468 245.066 65.7562 250.206 62.3103 252.32C61.6533 252.722 61.0836 253.251 60.6347 253.877C60.1857 254.503 59.8668 255.212 59.6966 255.963C59 259.045 58.7349 264.777 62.5199 273.036C68.4624 285.979 72.7837 291.674 72.7837 291.674C72.7837 291.674 73.8625 304.618 72.2412 308.421C70.62 312.223 72.2412 333.001 72.2412 333.001C72.2412 333.001 100.598 338.4 110.06 333.001C119.523 327.601 118.166 306.75 118.166 306.75C118.166 306.75 127.08 325.66 130.323 326.196L128.43 315.663C128.43 315.663 117.895 304.316 117.334 289.733C117.334 289.733 114.092 276.5 116.792 272.986C116.792 272.986 127.327 284.333 139.212 284.081C151.097 283.828 165.146 285.431 165.146 285.431C165.146 285.431 162.446 276.802 165.146 273.547C165.146 273.547 135.162 272.198 130.569 264.918C130.569 264.918 117.334 254.385 116.792 247.365C116.713 246.048 116.299 244.773 115.591 243.66C114.882 242.547 113.902 241.633 112.742 241.004C110.904 239.959 108.796 239.489 106.688 239.654L100.585 240.073C100.585 240.073 111.145 258.675 110.603 261.14C110.06 263.606 111.145 283.286 111.145 283.286C111.145 283.286 98.9888 257.078 93.6072 254.108C88.2257 251.137 81.9687 238.952 81.9687 238.952L83.0475 232.788Z" fill="#787C9C"/>
<path opacity="0.1" d="M77.105 261.14C77.105 261.14 83.59 283.021 87.3688 285.72C91.1476 288.42 114.11 302.195 120.866 298.953C120.866 298.953 122.488 307.058 120.059 308.944C120.059 308.944 94.8709 307.958 94.6675 307.866C94.6675 307.866 78.1899 305.702 75.4899 297.603C72.7899 289.505 69.5474 275.723 69.5474 275.723L77.105 261.14Z" fill="black"/>
<path d="M111.688 285.844C112.208 285.844 112.631 285.239 112.631 284.494C112.631 283.748 112.208 283.144 111.688 283.144C111.167 283.144 110.744 283.748 110.744 284.494C110.744 285.239 111.167 285.844 111.688 285.844Z" fill="#BA7855"/>
<path d="M114.388 295.298C114.909 295.298 115.331 294.694 115.331 293.948C115.331 293.203 114.909 292.599 114.388 292.599C113.867 292.599 113.444 293.203 113.444 293.948C113.444 294.694 113.867 295.298 114.388 295.298Z" fill="#BA7855"/>
<g opacity="0.1">
<path opacity="0.1" d="M74.1337 332.705C74.1337 332.705 72.5125 311.909 74.1337 308.125C75.755 304.34 74.6762 291.378 74.6762 291.378C74.6762 291.378 70.3611 285.708 64.4124 272.74C60.6274 264.481 60.8986 258.749 61.5891 255.667C61.76 254.916 62.0799 254.206 62.5299 253.58C62.9799 252.955 63.5509 252.426 64.209 252.024C67.6549 249.91 75.3666 244.77 77.6475 239.784C79.3242 236.129 81.4263 234.273 82.9489 233.355L83.0537 232.739C83.0537 232.739 78.7386 233.546 75.7611 240.03C73.4741 245.016 65.7624 250.157 62.3226 252.271C61.6645 252.672 61.0936 253.201 60.6436 253.827C60.1936 254.453 59.8737 255.162 59.7027 255.914C59.0062 258.995 58.7411 264.727 62.5261 272.986C68.4686 285.93 72.7899 291.625 72.7899 291.625C72.7899 291.625 73.8687 304.568 72.2474 308.371C70.6262 312.174 72.2474 332.951 72.2474 332.951C72.2474 332.951 92.51 336.81 104.494 334.745C92.3744 336.181 74.1337 332.705 74.1337 332.705Z" fill="black"/>
<path opacity="0.1" d="M110.603 261.14C110.233 262.804 110.603 272.592 110.905 278.583C112.212 281.252 113.031 283.014 113.031 283.014C113.031 283.014 111.953 263.291 112.489 260.869C113.001 258.558 103.514 241.608 102.57 239.913L100.604 240.049C100.604 240.049 111.145 258.675 110.603 261.14Z" fill="black"/>
<path opacity="0.1" d="M141.129 283.815C129.244 284.087 118.709 272.721 118.709 272.721C118.39 273.163 118.158 273.66 118.025 274.188C121.107 277.091 129.737 284.284 139.237 284.05C151.122 283.779 165.17 285.4 165.17 285.4C165.17 285.4 165.115 285.221 165.029 284.913C157.089 284.104 149.11 283.737 141.129 283.815Z" fill="black"/>
<path opacity="0.1" d="M120.059 306.503C120.059 306.503 120.17 308.192 120.108 310.725C122.919 316.273 128.036 325.838 130.323 326.221L129.922 324.002C125.977 319.077 120.059 306.503 120.059 306.503Z" fill="black"/>
</g>
<path d="M127.623 303.804L121.884 305.037L117.359 305.992L119.788 299.212L121.477 298.787L124.109 298.134C124.109 298.134 127.894 279.224 135.458 280.58C143.022 281.936 127.623 303.804 127.623 303.804Z" fill="#714B4F"/>
<path opacity="0.1" d="M121.884 305.012L117.359 305.967L119.788 299.187L121.477 298.762C121.855 300.823 121.991 302.92 121.884 305.012Z" fill="black"/>
<path d="M77.105 260.585C77.105 260.585 83.59 282.466 87.3688 285.166C91.1476 287.865 114.11 301.641 120.866 298.399C120.866 298.399 122.488 306.504 120.059 308.39C120.059 308.39 94.8709 307.403 94.6675 307.311C94.6675 307.311 78.1899 305.148 75.4899 297.049C72.7899 288.95 69.5474 275.168 69.5474 275.168L77.105 260.585Z" fill="#787C9C"/>
<path opacity="0.1" d="M85.2113 225.478C85.2113 225.478 84.6626 227.592 83.9291 230.668C85.4278 233.498 87.8168 235.755 90.727 237.092C93.6373 238.429 96.9069 238.771 100.031 238.064C99.3834 235.29 99.5251 232.517 101.424 230.316L85.2113 225.478Z" fill="black"/>
<path d="M96.56 237.898C104.615 237.898 111.145 231.369 111.145 223.315C111.145 215.261 104.615 208.732 96.56 208.732C88.5049 208.732 81.9749 215.261 81.9749 223.315C81.9749 231.369 88.5049 237.898 96.56 237.898Z" fill="#714B4F"/>
<path opacity="0.1" d="M109.222 219.302C110.281 219.596 111.39 219.664 112.477 219.5C114.751 219.031 116.373 216.72 116.428 214.396C116.405 213.232 116.124 212.088 115.603 211.046C115.083 210.005 114.337 209.092 113.42 208.375C112.187 207.345 110.707 206.612 109.579 205.465C108.242 204.103 107.514 202.266 106.497 200.664C104.755 197.999 102.17 195.994 99.1553 194.969C96.9176 194.211 94.1806 194.124 92.4607 195.752C91.5792 196.584 91.0613 197.786 90.075 198.488C88.6449 199.505 86.7092 199.203 84.9647 199.407C83.3834 199.65 81.8864 200.278 80.6059 201.237C79.3254 202.196 78.3009 203.456 77.6228 204.904C76.2981 207.839 76.0451 211.146 76.9078 214.248C77.2468 215.573 77.74 216.862 78.1037 218.181C78.8619 220.93 79.0406 223.814 79.916 226.526C80.7914 229.238 82.5975 231.888 85.3284 232.69C85.1123 229.649 85.7125 226.606 87.0668 223.876C87.291 223.281 87.7312 222.792 88.2997 222.507C88.787 222.382 89.298 222.382 89.7853 222.507C93.2054 223.015 96.6951 222.308 99.6484 220.51C100.684 219.894 102.299 217.731 103.409 217.515C104.827 217.262 107.742 218.97 109.222 219.302Z" fill="black"/>
<path d="M109.222 218.76C110.281 219.054 111.39 219.121 112.477 218.957C114.751 218.489 116.373 216.177 116.428 213.854C116.405 212.69 116.124 211.545 115.603 210.504C115.083 209.462 114.337 208.549 113.42 207.832C112.187 206.803 110.707 206.069 109.579 204.923C108.242 203.561 107.514 201.724 106.497 200.121C104.755 197.457 102.17 195.452 99.1552 194.426C96.9175 193.668 94.1805 193.582 92.4607 195.209C91.5791 196.041 91.0613 197.243 90.075 197.946C88.6448 198.963 86.7092 198.661 84.9647 198.864C83.3834 199.107 81.8864 199.736 80.6059 200.695C79.3254 201.654 78.3009 202.913 77.6228 204.362C76.304 207.29 76.051 210.587 76.9077 213.681C77.2468 215.006 77.7399 216.295 78.1036 217.614C78.8619 220.362 79.0406 223.247 79.916 225.959C80.7913 228.671 82.5975 231.321 85.3284 232.122C85.1123 229.082 85.7125 226.039 87.0667 223.309C87.2909 222.714 87.7312 222.225 88.2996 221.94C88.787 221.815 89.2979 221.815 89.7853 221.94C93.2053 222.447 96.6951 221.741 99.6484 219.943C100.684 219.327 102.299 217.164 103.409 216.948C104.827 216.72 107.742 218.433 109.222 218.76Z" fill="#503F43"/>
<path d="M458.068 67.4458H139.52V448.351H458.068V67.4458Z" fill="#FAFBFC"/>
<path d="M458.068 67.4458H139.52V80.3583H458.068V67.4458Z" fill="#7983A6"/>
<path d="M182.566 222.662H415.022" stroke="#7983A6" stroke-miterlimit="10"/>
<g opacity="0.5">
<path opacity="0.5" d="M182.566 197.373H186.265" stroke="#7983A6" stroke-miterlimit="10"/>
<path opacity="0.5" d="M193.527 197.373H407.692" stroke="#7983A6" stroke-miterlimit="10" stroke-dasharray="11.78 11.78"/>
<path opacity="0.5" d="M411.323 197.373H415.022" stroke="#7983A6" stroke-miterlimit="10"/>
</g>
<g opacity="0.5">
<path opacity="0.5" d="M182.566 172.09H186.265" stroke="#7983A6" stroke-miterlimit="10"/>
<path opacity="0.5" d="M193.527 172.09H407.692" stroke="#7983A6" stroke-miterlimit="10" stroke-dasharray="11.78 11.78"/>
<path opacity="0.5" d="M411.323 172.09H415.022" stroke="#7983A6" stroke-miterlimit="10"/>
</g>
<g opacity="0.5">
<path opacity="0.5" d="M182.566 146.801H186.265" stroke="#7983A6" stroke-miterlimit="10"/>
<path opacity="0.5" d="M193.527 146.801H407.692" stroke="#7983A6" stroke-miterlimit="10" stroke-dasharray="11.78 11.78"/>
<path opacity="0.5" d="M411.323 146.801H415.022" stroke="#7983A6" stroke-miterlimit="10"/>
</g>
<g opacity="0.5">
<path opacity="0.5" d="M182.566 121.518H186.265" stroke="#7983A6" stroke-miterlimit="10"/>
<path opacity="0.5" d="M193.527 121.518H407.692" stroke="#7983A6" stroke-miterlimit="10" stroke-dasharray="11.78 11.78"/>
<path opacity="0.5" d="M411.323 121.518H415.022" stroke="#7983A6" stroke-miterlimit="10"/>
</g>
<g opacity="0.3">
<path opacity="0.3" d="M210.818 172.09H194.137V222.661H210.818V172.09Z" fill="#6C63FF"/>
</g>
<path d="M257.36 146.53H240.679V222.926H257.36V146.53Z" fill="#6C63FF"/>
<g opacity="0.3">
<path opacity="0.3" d="M303.908 197.101H287.227V223.191H303.908V197.101Z" fill="#6C63FF"/>
</g>
<path d="M350.449 120.711H333.768V222.933H350.449V120.711Z" fill="#6C63FF"/>
<g opacity="0.3">
<path opacity="0.3" d="M396.991 145.457H380.31V222.661H396.991V145.457Z" fill="#6C63FF"/>
</g>
<path d="M202.478 238.526C204.854 238.526 206.78 236.6 206.78 234.224C206.78 231.848 204.854 229.922 202.478 229.922C200.101 229.922 198.175 231.848 198.175 234.224C198.175 236.6 200.101 238.526 202.478 238.526Z" fill="#6C63FF"/>
<path d="M249.291 238.526C251.667 238.526 253.593 236.6 253.593 234.224C253.593 231.848 251.667 229.922 249.291 229.922C246.914 229.922 244.988 231.848 244.988 234.224C244.988 236.6 246.914 238.526 249.291 238.526Z" fill="#6C63FF"/>
<path d="M296.103 238.526C298.48 238.526 300.406 236.6 300.406 234.224C300.406 231.848 298.48 229.922 296.103 229.922C293.727 229.922 291.801 231.848 291.801 234.224C291.801 236.6 293.727 238.526 296.103 238.526Z" fill="#6C63FF"/>
<path d="M342.916 238.526C345.293 238.526 347.219 236.6 347.219 234.224C347.219 231.848 345.293 229.922 342.916 229.922C340.54 229.922 338.613 231.848 338.613 234.224C338.613 236.6 340.54 238.526 342.916 238.526Z" fill="#6C63FF"/>
<path d="M389.729 238.526C392.105 238.526 394.032 236.6 394.032 234.224C394.032 231.848 392.105 229.922 389.729 229.922C387.353 229.922 385.426 231.848 385.426 234.224C385.426 236.6 387.353 238.526 389.729 238.526Z" fill="#6C63FF"/>
<path d="M182.566 385.138H415.022" stroke="#7983A6" stroke-miterlimit="10"/>
<g opacity="0.5">
<path opacity="0.5" d="M182.566 359.849H186.265" stroke="#7983A6" stroke-miterlimit="10"/>
<path opacity="0.5" d="M193.527 359.849H407.692" stroke="#7983A6" stroke-miterlimit="10" stroke-dasharray="11.78 11.78"/>
<path opacity="0.5" d="M411.323 359.849H415.022" stroke="#7983A6" stroke-miterlimit="10"/>
</g>
<g opacity="0.5">
<path opacity="0.5" d="M182.566 334.566H186.265" stroke="#7983A6" stroke-miterlimit="10"/>
<path opacity="0.5" d="M193.527 334.566H407.692" stroke="#7983A6" stroke-miterlimit="10" stroke-dasharray="11.78 11.78"/>
<path opacity="0.5" d="M411.323 334.566H415.022" stroke="#7983A6" stroke-miterlimit="10"/>
</g>
<g opacity="0.5">
<path opacity="0.5" d="M182.566 309.277H186.265" stroke="#7983A6" stroke-miterlimit="10"/>
<path opacity="0.5" d="M193.527 309.277H407.692" stroke="#7983A6" stroke-miterlimit="10" stroke-dasharray="11.78 11.78"/>
<path opacity="0.5" d="M411.323 309.277H415.022" stroke="#7983A6" stroke-miterlimit="10"/>
</g>
<g opacity="0.5">
<path opacity="0.5" d="M182.566 283.995H186.265" stroke="#7983A6" stroke-miterlimit="10"/>
<path opacity="0.5" d="M193.527 283.995H407.692" stroke="#7983A6" stroke-miterlimit="10" stroke-dasharray="11.78 11.78"/>
<path opacity="0.5" d="M411.323 283.995H415.022" stroke="#7983A6" stroke-miterlimit="10"/>
</g>
<path d="M210.818 334.566H194.137V385.138H210.818V334.566Z" fill="#6C63FF"/>
<path d="M257.36 334.295H240.679V385.403H257.36V334.295Z" fill="#6C63FF"/>
<path d="M303.908 359.584H287.227V385.674H303.908V359.584Z" fill="#6C63FF"/>
<path d="M350.449 283.187H333.768V385.409H350.449V283.187Z" fill="#6C63FF"/>
<path d="M460.485 222.877H443.804V300.081H460.485V222.877Z" fill="#6C63FF"/>
<g opacity="0.7">
<path opacity="0.7" d="M202.478 401.003C204.854 401.003 206.78 399.077 206.78 396.701C206.78 394.325 204.854 392.398 202.478 392.398C200.101 392.398 198.175 394.325 198.175 396.701C198.175 399.077 200.101 401.003 202.478 401.003Z" fill="#6C63FF"/>
</g>
<g opacity="0.7">
<path opacity="0.7" d="M249.291 401.003C251.667 401.003 253.593 399.077 253.593 396.701C253.593 394.325 251.667 392.398 249.291 392.398C246.914 392.398 244.988 394.325 244.988 396.701C244.988 399.077 246.914 401.003 249.291 401.003Z" fill="#6C63FF"/>
</g>
<g opacity="0.7">
<path opacity="0.7" d="M296.103 401.003C298.48 401.003 300.406 399.077 300.406 396.701C300.406 394.325 298.48 392.398 296.103 392.398C293.727 392.398 291.801 394.325 291.801 396.701C291.801 399.077 293.727 401.003 296.103 401.003Z" fill="#6C63FF"/>
</g>
<g opacity="0.7">
<path opacity="0.7" d="M342.916 401.003C345.293 401.003 347.219 399.077 347.219 396.701C347.219 394.325 345.293 392.398 342.916 392.398C340.54 392.398 338.613 394.325 338.613 396.701C338.613 399.077 340.54 401.003 342.916 401.003Z" fill="#6C63FF"/>
</g>
<g opacity="0.7">
<path opacity="0.7" d="M389.729 401.003C392.105 401.003 394.032 399.077 394.032 396.701C394.032 394.325 392.105 392.398 389.729 392.398C387.353 392.398 385.426 394.325 385.426 396.701C385.426 399.077 387.353 401.003 389.729 401.003Z" fill="#6C63FF"/>
</g>
<path d="M115.923 446.958C117.052 446.037 117.876 444.795 118.284 443.395C118.592 441.978 117.988 440.283 116.631 439.765C115.115 439.186 113.494 440.233 112.267 441.3C111.04 442.366 109.629 443.574 108.02 443.346C108.847 442.597 109.465 441.646 109.815 440.586C110.165 439.526 110.235 438.394 110.017 437.3C109.947 436.846 109.756 436.42 109.462 436.067C108.618 435.167 107.095 435.555 106.084 436.264C102.879 438.52 101.985 442.871 101.966 446.791C101.646 445.38 101.917 443.907 101.905 442.477C101.892 441.047 101.498 439.395 100.277 438.643C99.5203 438.237 98.6703 438.035 97.8114 438.058C96.3689 438.002 94.7661 438.15 93.7798 439.204C92.5469 440.511 92.8737 442.711 93.9401 444.135C95.0066 445.559 96.6216 446.477 98.1134 447.476C99.309 448.186 100.329 449.157 101.097 450.317C101.187 450.478 101.262 450.647 101.319 450.822H110.35C112.373 449.791 114.248 448.491 115.923 446.958Z" fill="#6C63FF"/>
<path d="M554.832 439.561C555.961 438.64 556.785 437.398 557.193 435.999C557.501 434.581 556.897 432.886 555.541 432.369C554.024 431.789 552.403 432.837 551.176 433.903C549.949 434.97 548.538 436.178 546.929 435.95C547.756 435.2 548.374 434.249 548.724 433.189C549.074 432.13 549.144 430.998 548.926 429.903C548.857 429.449 548.665 429.023 548.371 428.67C547.527 427.771 546.004 428.159 544.993 428.868C541.788 431.124 540.894 435.475 540.875 439.395C540.555 437.984 540.826 436.51 540.814 435.08C540.801 433.651 540.407 431.999 539.186 431.247C538.429 430.84 537.579 430.638 536.72 430.661C535.278 430.606 533.675 430.754 532.689 431.808C531.456 433.114 531.783 435.315 532.849 436.738C533.916 438.162 535.531 439.081 537.023 440.079C538.218 440.79 539.238 441.761 540.006 442.92C540.097 443.081 540.171 443.251 540.228 443.426H549.259C551.282 442.395 553.157 441.095 554.832 439.561Z" fill="#6C63FF"/>
<path d="M490.968 290.392L486.462 289.868L451.941 285.856C430.988 279.236 444.241 269.153 444.241 269.153L458.192 282.404C462.217 283.212 477.998 281.332 485.069 280.426C487.189 280.149 488.527 279.964 488.527 279.964L490.968 290.392Z" fill="#FDC2CC"/>
<path d="M524.792 242.649C524.792 242.649 515.724 235.327 502.126 259.038C488.527 282.749 485.389 278.909 485.389 278.909C485.389 278.909 488.182 289.387 486.782 291.464C486.782 291.464 496.195 290.768 499.684 291.464C503.174 292.161 524.792 264.961 524.792 264.961C524.792 264.961 535.956 249.602 524.792 242.649Z" fill="#F68080"/>
<defs>
<linearGradient id="paint0_linear" x1="482.818" y1="452.154" x2="482.818" y2="193.638" gradientUnits="userSpaceOnUse">
<stop stop-color="#808080" stop-opacity="0.25"/>
<stop offset="0.54" stop-color="#808080" stop-opacity="0.12"/>
<stop offset="1" stop-color="#808080" stop-opacity="0.1"/>
</linearGradient>
<linearGradient id="paint1_linear" x1="41234.7" y1="212997" x2="41234.7" y2="99569.3" gradientUnits="userSpaceOnUse">
<stop stop-color="#808080" stop-opacity="0.25"/>
<stop offset="0.54" stop-color="#808080" stop-opacity="0.12"/>
<stop offset="1" stop-color="#808080" stop-opacity="0.1"/>
</linearGradient>
</defs>
</svg>
