<svg width="594" height="421" viewBox="0 0 594 421" fill="none" xmlns="http://www.w3.org/2000/svg">
<path opacity="0.1" d="M73.7835 311.05C71.3617 315.961 74.8503 321.262 73.6288 326.334C72.1139 332.733 63.4244 337.714 54.0627 340.893C44.7011 344.071 34.2459 346.002 25.119 349.426C21.1717 350.903 17.059 353.628 19.1126 356.134C19.8221 357.004 21.1557 357.612 22.4519 358.182C49.0272 369.787 81.8809 376.09 114.735 375.888C149.45 375.669 183.451 368.422 218.139 369.253C262.883 370.32 306.155 384.751 350.392 380.591C369.174 378.826 386.622 373.792 404.902 370.651C431.798 366.027 460.085 365.563 487.936 364.043C508.851 362.902 532.743 359.942 542.745 348.818C549.968 340.775 546.938 330.152 536.76 323.342C526.582 316.532 510.323 313.62 495.297 314.943C487.221 315.652 479.193 317.492 471.122 316.761C466.433 316.335 462.091 315.065 457.829 313.817C424.757 304.111 390.463 294.427 353.731 293.019C293.96 290.71 238.612 310.378 180.41 318.884C171.342 320.206 161.505 321.225 152.944 319.006C143.918 316.665 138.008 311.135 128.977 308.804C124.71 307.695 119.909 307.375 115.689 306.17C104.098 302.853 109.464 298.293 93.4029 301.37C84.9748 302.976 76.488 305.567 73.7835 311.05Z" fill="#6C63FF"/>
<path d="M382.104 147.232C382.104 147.232 421.833 84.7941 426.634 58.1293C431.435 31.4646 440.503 6.93298 440.503 6.93298" stroke="#535461" stroke-width="2" stroke-miterlimit="10"/>
<path d="M449.572 60.2622L424.5 62.3954C424.5 62.3954 437.836 85.3271 449.572 60.2622Z" fill="#6C63FF"/>
<path d="M405.831 46.3967L425.685 62.2943C425.685 62.2943 399.963 72.5282 405.831 46.3967Z" fill="#6C63FF"/>
<path d="M452.772 38.3972L430.197 41.421C430.197 41.421 450.105 57.5958 452.772 38.3972Z" fill="#6C63FF"/>
<path d="M415.432 30.3977L430.336 40.8556C430.336 40.8556 412.232 48.5297 415.432 30.3977Z" fill="#6C63FF"/>
<path d="M435.868 20.9C435.868 20.9 454.372 15.999 457.039 17.0656C459.707 18.1322 458.106 29.8647 450.638 30.3979C443.17 30.9312 435.868 20.9 435.868 20.9Z" fill="#6C63FF"/>
<path d="M423.434 6.93298C423.434 6.93298 435.169 18.1322 435.702 20.7987C436.236 23.4651 426.101 29.8647 420.767 20.7987C415.432 11.7326 423.434 6.93298 423.434 6.93298Z" fill="#6C63FF"/>
<path d="M445.304 13.3323C448.25 13.3323 450.638 10.9446 450.638 7.99933C450.638 5.05403 448.25 2.66638 445.304 2.66638C442.358 2.66638 439.97 5.05403 439.97 7.99933C439.97 10.9446 442.358 13.3323 445.304 13.3323Z" fill="#FFD037"/>
<path d="M435.702 10.6659C438.648 10.6659 441.037 8.27826 441.037 5.33295C441.037 2.38764 438.648 0 435.702 0C432.756 0 430.368 2.38764 430.368 5.33295C430.368 8.27826 432.756 10.6659 435.702 10.6659Z" fill="#FFD037"/>
<path d="M86.9805 329.875C86.9805 329.875 70.0068 285.334 83.3478 250.547C88.9488 235.946 89.941 219.968 85.6629 204.924C83.6187 197.797 80.9261 190.873 77.6188 184.237" stroke="#535461" stroke-width="2" stroke-miterlimit="10"/>
<path d="M85.8923 162.245C86.3244 167.834 77.4695 184.819 77.4695 184.819C77.4695 184.819 66.0915 169.407 65.6594 163.818C65.4508 161.135 66.3168 158.479 68.0669 156.434C69.8171 154.389 72.308 153.123 74.9917 152.915C77.6755 152.706 80.3322 153.572 82.3775 155.321C84.4227 157.071 85.689 159.561 85.8976 162.245H85.8923Z" fill="#6C63FF"/>
<path d="M105.021 191.89C102.354 196.818 85.6789 206.263 85.6789 206.263C85.6789 206.263 84.5107 187.144 87.1832 182.216C88.4663 179.851 90.6369 178.092 93.2173 177.326C95.7978 176.56 98.5768 176.851 100.943 178.134C103.309 179.417 105.069 181.587 105.834 184.167C106.6 186.746 106.309 189.525 105.026 191.89H105.021Z" fill="#6C63FF"/>
<path d="M108.403 244.825C103.602 247.726 84.452 247.492 84.452 247.492C84.452 247.492 93.0989 230.394 97.889 227.493C99.0291 226.803 100.294 226.344 101.611 226.143C102.929 225.941 104.273 226.001 105.568 226.319C106.862 226.637 108.081 227.207 109.155 227.995C110.229 228.784 111.137 229.777 111.827 230.917C112.518 232.057 112.977 233.321 113.178 234.638C113.38 235.956 113.32 237.299 113.002 238.593C112.684 239.887 112.114 241.106 111.325 242.18C110.536 243.254 109.543 244.162 108.403 244.852V244.825Z" fill="#6C63FF"/>
<path d="M101.938 285.457C97.7023 289.126 78.7764 292.107 78.7764 292.107C78.7764 292.107 84.4093 273.794 88.6394 270.125C89.6464 269.252 90.8155 268.585 92.08 268.164C93.3444 267.743 94.6795 267.575 96.009 267.669C97.3385 267.764 98.6363 268.119 99.8284 268.715C101.02 269.312 102.083 270.136 102.957 271.143C103.83 272.15 104.496 273.319 104.917 274.583C105.339 275.847 105.507 277.182 105.412 278.511C105.318 279.84 104.962 281.138 104.366 282.329C103.77 283.521 102.945 284.584 101.938 285.457Z" fill="#6C63FF"/>
<path d="M64.5179 208.993C68.828 212.577 87.8126 215.158 87.8126 215.158C87.8126 215.158 81.8009 196.967 77.4855 193.389C75.4157 191.669 72.7474 190.842 70.0674 191.089C67.3874 191.336 64.9153 192.637 63.195 194.706C61.4747 196.775 60.647 199.443 60.8941 202.122C61.1412 204.802 62.4428 207.273 64.5126 208.993H64.5179Z" fill="#6C63FF"/>
<path d="M57.562 256.606C62.7469 258.739 81.6355 255.539 81.6355 255.539C81.6355 255.539 70.4336 239.983 65.27 237.855C62.7801 236.833 59.9861 236.842 57.5027 237.88C55.0192 238.917 53.0498 240.899 52.0277 243.388C51.0056 245.877 51.0144 248.671 52.0523 251.153C53.0902 253.636 55.0721 255.605 57.562 256.627V256.606Z" fill="#6C63FF"/>
<path d="M57.1513 303.808C61.9041 306.778 81.0648 306.805 81.0648 306.805C81.0648 306.805 72.6687 289.579 67.9212 286.63C65.6399 285.202 62.8848 284.739 60.2618 285.342C57.6388 285.945 55.3629 287.565 53.9347 289.846C52.5066 292.127 52.0431 294.881 52.6463 297.503C53.2496 300.126 54.87 302.401 57.1513 303.829V303.808Z" fill="#6C63FF"/>
<path d="M85.8923 162.245C86.3244 167.834 77.4695 184.819 77.4695 184.819C77.4695 184.819 66.0915 169.407 65.6594 163.818C65.4508 161.135 66.3168 158.479 68.0669 156.434C69.8171 154.389 72.308 153.123 74.9917 152.915C77.6755 152.706 80.3322 153.572 82.3775 155.321C84.4227 157.071 85.689 159.561 85.8976 162.245H85.8923Z" fill="#6C63FF"/>
<path d="M105.021 191.89C102.354 196.818 85.6789 206.263 85.6789 206.263C85.6789 206.263 84.5107 187.144 87.1832 182.216C88.4663 179.851 90.6369 178.092 93.2173 177.326C95.7978 176.56 98.5768 176.851 100.943 178.134C103.309 179.417 105.069 181.587 105.834 184.167C106.6 186.746 106.309 189.525 105.026 191.89H105.021Z" fill="#6C63FF"/>
<path d="M108.403 244.825C103.602 247.726 84.452 247.492 84.452 247.492C84.452 247.492 93.0989 230.394 97.889 227.493C99.0291 226.803 100.294 226.344 101.611 226.143C102.929 225.941 104.273 226.001 105.568 226.319C106.862 226.637 108.081 227.207 109.155 227.995C110.229 228.784 111.137 229.777 111.827 230.917C112.518 232.057 112.977 233.321 113.178 234.638C113.38 235.956 113.32 237.299 113.002 238.593C112.684 239.887 112.114 241.106 111.325 242.18C110.536 243.254 109.543 244.162 108.403 244.852V244.825Z" fill="#6C63FF"/>
<path d="M101.938 285.457C97.7023 289.126 78.7764 292.107 78.7764 292.107C78.7764 292.107 84.4093 273.794 88.6394 270.125C89.6464 269.252 90.8155 268.585 92.08 268.164C93.3444 267.743 94.6795 267.575 96.009 267.669C97.3385 267.764 98.6363 268.119 99.8284 268.715C101.02 269.312 102.083 270.136 102.957 271.143C103.83 272.15 104.496 273.319 104.917 274.583C105.339 275.847 105.507 277.182 105.412 278.511C105.318 279.84 104.962 281.138 104.366 282.329C103.77 283.521 102.945 284.584 101.938 285.457Z" fill="#6C63FF"/>
<path d="M64.5179 208.993C68.828 212.577 87.8126 215.158 87.8126 215.158C87.8126 215.158 81.8009 196.967 77.4855 193.389C75.4157 191.669 72.7474 190.842 70.0674 191.089C67.3874 191.336 64.9153 192.637 63.195 194.706C61.4747 196.775 60.647 199.443 60.8941 202.122C61.1412 204.802 62.4428 207.273 64.5126 208.993H64.5179Z" fill="#6C63FF"/>
<path d="M57.562 256.606C62.7469 258.739 81.6355 255.539 81.6355 255.539C81.6355 255.539 70.4336 239.983 65.27 237.855C62.7801 236.833 59.9861 236.842 57.5027 237.88C55.0192 238.917 53.0498 240.899 52.0277 243.388C51.0056 245.877 51.0144 248.671 52.0523 251.153C53.0902 253.636 55.0721 255.605 57.562 256.627V256.606Z" fill="#6C63FF"/>
<path d="M57.1513 303.808C61.9041 306.778 81.0648 306.805 81.0648 306.805C81.0648 306.805 72.6687 289.579 67.9212 286.63C65.6399 285.202 62.8848 284.739 60.2618 285.342C57.6388 285.945 55.3629 287.565 53.9347 289.846C52.5066 292.127 52.0431 294.881 52.6463 297.503C53.2496 300.126 54.87 302.401 57.1513 303.829V303.808Z" fill="#6C63FF"/>
<path d="M120.448 321.855C120.448 321.855 107.571 320.303 103.911 317.188C100.252 314.074 84.5961 309.338 83.2305 313.695C81.8649 318.052 61.8561 334.056 76.4186 335.48C90.9812 336.904 110.51 336.227 114.58 334.211C118.65 332.195 120.448 321.855 120.448 321.855Z" fill="#A8A8A8"/>
<path opacity="0.2" d="M76.3173 333.907C90.8851 335.325 110.387 334.659 114.484 332.643C117.604 331.107 119.359 324.75 120.021 321.801L120.453 321.854C120.453 321.854 118.703 332.19 114.585 334.211C110.467 336.232 90.9865 336.877 76.4186 335.475C72.2152 335.064 70.8923 333.438 71.1697 331.208C71.6551 332.622 73.186 333.603 76.3173 333.907Z" fill="black"/>
<path opacity="0.1" d="M558.497 246.249C537.587 274.898 544.521 315.791 556.577 348.37C560.62 359.276 565.213 370.811 563.117 382.677C560.556 397.182 548.522 408.051 536.013 413.971C513.209 424.759 486.271 423.037 465.873 409.443C448.27 397.71 435.878 378.213 417.934 367.041C387.902 348.349 348.914 356.7 315.49 370.971C291.843 381.066 265.94 394.068 242.896 384.746C226.679 378.186 215.76 361.489 210.015 343.64C207.241 335.022 205.3 325.668 199.773 318.921C196.487 314.911 192.145 312.116 187.681 309.781C146.932 288.449 94.5178 301.781 55.0122 277.98C28.3409 261.907 11.7407 230.714 4.8435 197.922C-2.0537 165.13 -0.346739 130.513 2.4004 96.4892C4.35274 72.3096 7.44128 46.4715 21.9825 27.4702C37.3612 7.37559 63.1363 -0.613171 86.1856 2.5386C109.235 5.69038 129.895 18.5055 147.978 33.7577C170.59 52.8283 191.393 76.7573 219.516 83.9781C238.671 88.9058 259.021 85.418 278.934 83.8768C312.22 81.3063 345.388 84.2661 378.354 87.6099C409.911 90.8096 441.687 94.3827 471.575 104.873C492.726 112.296 509.491 126.327 529.404 135.916C542.382 142.166 556.662 143.617 568.878 151.691C583.952 161.637 597.576 179.257 593.154 200.402C588.977 220.502 569.592 231.045 558.497 246.249Z" fill="#6C63FF"/>
<path d="M459.413 43.4475H111.139C107.528 43.4447 104.064 44.8757 101.508 47.4258C98.9527 49.976 97.5145 53.4365 97.5103 57.0465V259.965C97.5145 263.575 98.9527 267.036 101.508 269.586C104.064 272.136 107.528 273.567 111.139 273.564H251.388V323.572H238.191C237.329 323.572 236.502 323.914 235.892 324.522C235.282 325.131 234.938 325.957 234.937 326.819V333.56H337.291V326.809C337.289 325.947 336.946 325.121 336.336 324.512C335.726 323.903 334.899 323.561 334.037 323.561H317.186V273.548H459.413C463.021 273.551 466.483 272.122 469.039 269.576C471.594 267.029 473.034 263.573 473.042 259.965V57.0465C473.038 53.4365 471.6 49.976 469.044 47.4258C466.488 44.8757 463.024 43.4447 459.413 43.4475Z" fill="url(#paint0_linear)"/>
<path d="M316.935 264.077H252.247V326.483H316.935V264.077Z" fill="#474059"/>
<path opacity="0.1" d="M316.935 320.948H252.247V326.483H316.935V320.948Z" fill="black"/>
<path d="M239.274 321.577H333.503C334.352 321.577 335.166 321.914 335.766 322.514C336.367 323.114 336.704 323.928 336.704 324.777V331.432H236.073V324.777C236.073 323.928 236.41 323.114 237.01 322.514C237.611 321.914 238.425 321.577 239.274 321.577Z" fill="#474059"/>
<path d="M456.773 45.5808H114.361C106.961 45.5808 100.962 51.5786 100.962 58.9772V258.888C100.962 266.287 106.961 272.285 114.361 272.285H456.773C464.173 272.285 470.172 266.287 470.172 258.888V58.9772C470.172 51.5786 464.173 45.5808 456.773 45.5808Z" fill="#474059"/>
<path d="M461.622 72.0588H108.734V257.262H461.622V72.0588Z" fill="white"/>
<path d="M285.18 65.5632C286.898 65.5632 288.29 64.188 288.29 62.4915C288.29 60.795 286.898 59.4197 285.18 59.4197C283.463 59.4197 282.07 60.795 282.07 62.4915C282.07 64.188 283.463 65.5632 285.18 65.5632Z" fill="white"/>
<path opacity="0.1" d="M316.871 272.439H252.385V273.655H316.871V272.439Z" fill="black"/>
<path d="M306.581 115.309C296.281 123.838 288.5 135.012 284.074 147.63C279.647 160.247 278.743 173.832 281.458 186.925C284.173 200.017 290.404 212.123 299.482 221.942C308.561 231.761 320.143 238.922 332.986 242.655L353.555 171.972L306.581 115.309Z" fill="#D6D6E3"/>
<path d="M355.155 98.3768C337.998 98.3514 321.375 104.343 308.182 115.309L355.155 171.972L394.053 109.485C382.387 102.206 368.907 98.3564 355.155 98.3768Z" fill="#D6D6E3"/>
<path d="M355.155 171.972L334.586 242.649C345.452 245.803 356.898 246.413 368.037 244.43C379.176 242.446 389.709 237.924 398.818 231.214C407.926 224.504 415.366 215.786 420.56 205.737C425.754 195.688 428.563 184.577 428.768 173.268L355.155 171.972Z" fill="#8499F0"/>
<path d="M166.856 136.241H140.184V152.24H166.856V136.241Z" fill="#8499F0"/>
<path d="M166.856 163.972H140.184V179.971H166.856V163.972Z" fill="#FC6681"/>
<path d="M166.856 191.704H140.184V207.702H166.856V191.704Z" fill="#6C63FF"/>
<path d="M231.4 141.041H181.258V147.44H231.4V141.041Z" fill="#D6D6E3"/>
<path d="M231.4 168.772H181.258V175.172H231.4V168.772Z" fill="#D6D6E3"/>
<path d="M231.4 196.503H181.258V202.903H231.4V196.503Z" fill="#D6D6E3"/>
<path d="M461.84 71.7122H108.712V78.1117H461.84V71.7122Z" fill="#D6D6E3"/>
<path d="M112.98 76.5118C113.863 76.5118 114.58 75.7955 114.58 74.9119C114.58 74.0283 113.863 73.312 112.98 73.312C112.096 73.312 111.379 74.0283 111.379 74.9119C111.379 75.7955 112.096 76.5118 112.98 76.5118Z" fill="#FC6681"/>
<path d="M117.247 76.5118C118.131 76.5118 118.847 75.7955 118.847 74.9119C118.847 74.0283 118.131 73.312 117.247 73.312C116.363 73.312 115.647 74.0283 115.647 74.9119C115.647 75.7955 116.363 76.5118 117.247 76.5118Z" fill="#FFC74C"/>
<path d="M121.514 76.5118C122.398 76.5118 123.115 75.7955 123.115 74.9119C123.115 74.0283 122.398 73.312 121.514 73.312C120.631 73.312 119.914 74.0283 119.914 74.9119C119.914 75.7955 120.631 76.5118 121.514 76.5118Z" fill="#85D459"/>
<path d="M486.341 288.523C486.341 288.523 488.885 291.851 485.167 296.875C481.449 301.899 478.382 306.138 479.619 309.274C479.619 309.274 485.231 299.941 489.803 299.813C494.374 299.685 491.371 294.134 486.341 288.523Z" fill="#6C63FF"/>
<path opacity="0.1" d="M486.341 288.523C486.569 288.851 486.749 289.211 486.874 289.59C491.333 294.827 493.707 299.723 489.424 299.835C485.434 299.947 480.644 307.082 479.497 308.901C479.534 309.04 479.578 309.177 479.63 309.311C479.63 309.311 485.242 299.979 489.813 299.851C494.385 299.723 491.371 294.134 486.341 288.523Z" fill="black"/>
<path d="M491.073 292.763C491.073 293.936 490.939 294.896 490.779 294.896C490.619 294.896 490.485 293.947 490.485 292.763C490.485 291.579 490.651 292.144 490.811 292.144C490.972 292.144 491.073 291.59 491.073 292.763Z" fill="#FFD037"/>
<path d="M492.699 294.16C491.67 294.72 490.773 295.061 490.699 294.917C490.624 294.773 491.392 294.203 492.422 293.643C493.451 293.083 493.046 293.488 493.12 293.643C493.195 293.798 493.729 293.6 492.699 294.16Z" fill="#FFD037"/>
<path d="M472.898 288.523C472.898 288.523 470.354 291.851 474.072 296.875C477.79 301.899 480.857 306.138 479.619 309.274C479.619 309.274 474.008 299.941 469.436 299.813C464.865 299.685 467.873 294.134 472.898 288.523Z" fill="#6C63FF"/>
<path opacity="0.1" d="M472.898 288.523C472.67 288.851 472.49 289.211 472.365 289.59C467.905 294.827 465.532 299.723 469.815 299.835C473.805 299.947 478.595 307.082 479.742 308.901C479.705 309.04 479.661 309.177 479.609 309.311C479.609 309.311 473.997 299.979 469.426 299.851C464.854 299.723 467.873 294.134 472.898 288.523Z" fill="black"/>
<path d="M468.167 292.763C468.167 293.936 468.3 294.896 468.461 294.896C468.621 294.896 468.755 293.947 468.755 292.763C468.755 291.579 468.589 292.144 468.429 292.144C468.268 292.144 468.167 291.59 468.167 292.763Z" fill="#FFD037"/>
<path d="M466.545 294.16C467.575 294.72 468.471 295.061 468.546 294.917C468.62 294.773 467.852 294.203 466.823 293.643C465.793 293.083 466.198 293.488 466.124 293.643C466.049 293.798 465.516 293.6 466.545 294.16Z" fill="#FFD037"/>
<path d="M497.046 310.031C497.046 310.031 490.048 308.634 488.181 306.767C486.314 304.901 477.912 301.637 476.979 303.968C476.045 306.298 464.379 314.233 472.311 315.631C480.244 317.028 490.981 317.497 493.312 316.564C495.644 315.631 497.046 310.031 497.046 310.031Z" fill="#A8A8A8"/>
<path opacity="0.2" d="M472.311 314.761C480.244 316.159 490.981 316.628 493.312 315.695C495.089 314.985 496.326 311.572 496.812 309.983L497.046 310.031C497.046 310.031 495.649 315.631 493.312 316.564C490.976 317.497 480.244 317.028 472.311 315.631C470.023 315.225 469.367 314.276 469.612 313.076C469.81 313.855 470.61 314.463 472.311 314.761Z" fill="black"/>
<path d="M446.904 219.174C446.911 205.579 443.449 192.207 436.846 180.322C430.243 168.437 420.718 158.432 409.17 151.253L366.89 219.174L446.904 220.582C446.904 220.118 446.904 219.648 446.904 219.174Z" fill="url(#paint1_linear)"/>
<path d="M443.704 216.518C443.71 204.011 440.525 191.709 434.45 180.775C428.376 169.841 419.612 160.636 408.988 154.032L370.091 216.518L443.704 217.835C443.704 217.382 443.704 216.95 443.704 216.518Z" fill="#6C63FF"/>
<path d="M550.922 139.259C550.922 139.053 550.903 138.856 550.864 138.667C550.825 138.479 550.789 138.262 550.757 138.017C550.679 137.59 550.592 137.178 550.496 136.78C550.446 136.581 550.394 136.385 550.341 136.193C549.756 133.989 548.702 131.938 547.253 130.177L547.002 129.889C546.835 129.705 546.671 129.527 546.511 129.356C546.351 129.186 546.193 129.033 546.036 128.898C545.882 128.754 545.727 128.62 545.583 128.498C545.289 128.252 545.017 128.05 544.772 127.879C544.527 127.708 544.425 127.644 544.281 127.559C543.931 127.346 543.537 127.215 543.129 127.175L540.59 126.919L537.155 126.578L524.747 121.682L524.257 121.858C523.894 120.843 523.588 119.808 523.339 118.76C523.716 118.594 524.052 118.346 524.321 118.034C524.614 117.801 524.845 117.499 524.993 117.154C525.302 116.424 524.705 114.856 524.827 113.955C525.025 112.52 525.761 111.133 526.353 109.832C527.628 107.038 528.556 104.009 528.407 100.942C528.257 97.8757 526.881 94.7613 524.331 93.0494C523.014 92.1641 521.461 91.6895 520.096 90.8789C519.029 90.2496 518.09 89.4283 517.071 88.7191C514.586 87.0321 511.699 86.0292 508.703 85.811C505.707 85.5929 502.706 86.1673 500.002 87.4765C497.425 88.7671 495.227 90.6763 492.795 92.2441C490.363 93.812 487.498 94.9799 484.655 94.5266C484.615 94.6427 484.586 94.7623 484.57 94.8839L484.33 94.852C483.839 96.2119 485.039 97.5504 486.149 98.4784C488.25 100.238 490.629 101.993 493.371 102.057C494.438 102.057 495.548 101.854 496.513 102.297C496.723 102.396 496.92 102.522 497.1 102.67C496.483 105.145 496.552 107.741 497.3 110.179C498.048 112.618 499.447 114.806 501.346 116.509L495.014 114.195C495.014 114.195 494.747 114.333 494.342 114.595L485.546 108.648C485.546 108.648 467.916 102.11 463.019 112.243C458.122 122.375 484.244 117.122 484.244 117.122L489.835 120.242C489.65 121.413 489.866 122.612 490.448 123.645L505.688 133.217C502.61 134.182 497.548 135.724 496.652 135.724C495.345 135.724 491.755 137.03 489.466 142.251C487.178 147.472 479.017 172.937 471.837 177.177C464.657 181.416 445.699 209.82 445.699 209.82L445.784 210.044C445.446 210.133 445.116 210.232 444.792 210.342C440.055 211.91 436.865 215.211 434.95 217.889C434.626 218.34 434.424 218.867 434.365 219.42C434.307 219.973 434.393 220.531 434.616 221.04C434.839 221.549 435.191 221.992 435.636 222.324C436.082 222.656 436.607 222.866 437.159 222.933C444.627 223.893 448.718 220.395 450.681 217.75C450.809 217.579 450.926 217.409 451.038 217.249C451.622 217.503 452.279 217.534 452.884 217.334L462.038 209.836C462.038 209.836 454.906 216.982 459.077 223.504L458.757 223.957C451.666 234.244 446.474 245.717 443.426 257.832C443.426 257.832 439.506 260.771 439.159 272.519C438.812 284.268 434.892 303.205 434.892 303.205C434.892 303.205 432.278 325.726 433.91 332.584C433.91 332.584 434.097 332.856 434.444 333.272C434.321 333.422 434.188 333.576 434.038 333.742C432.614 335.304 430.043 337.475 427.05 336.824C422.479 335.843 422.479 344.008 429.008 344.658C433.211 345.079 441.479 346.989 446.83 348.295C447.419 348.44 448.034 348.441 448.624 348.297C449.214 348.154 449.76 347.871 450.217 347.472C450.674 347.072 451.028 346.569 451.249 346.004C451.47 345.439 451.551 344.829 451.487 344.226C451.166 341.304 450.585 337.763 449.529 335.245C449.465 335.091 449.395 334.936 449.326 334.787C449.518 334.605 449.71 334.419 449.902 334.216C449.902 334.216 449.902 319.855 452.185 315.935C452.185 315.935 458.389 286.23 458.053 278.721C457.797 272.855 474.146 249.972 481.262 240.324L481.204 239.956C483.087 237.46 484.244 235.967 484.244 235.967L489.797 271.549C489.797 271.549 492.411 279.383 495.665 283.628C495.665 283.628 509.705 310.719 511.337 319.209C512.574 325.646 515.124 329.449 516.287 330.915C516.154 331.054 516.01 331.192 515.86 331.331C514.377 332.718 512.18 334.104 509.705 333.576C505.133 332.595 505.133 340.76 511.662 341.41C515.866 341.832 524.134 343.741 529.484 345.047C530.073 345.192 530.689 345.193 531.278 345.05C531.868 344.906 532.414 344.623 532.871 344.224C533.328 343.825 533.682 343.321 533.903 342.756C534.124 342.191 534.206 341.582 534.141 340.978C533.773 337.581 533.042 333.358 531.634 330.846C531.513 330.636 531.388 330.439 531.26 330.254C531.759 330.05 532.203 329.732 532.557 329.326C532.557 329.326 524.07 308.762 524.07 303.194C524.07 303.194 520.48 281.975 508.398 274.14C508.398 274.14 509.539 247.604 512.98 232.837C513.065 232.481 513.152 232.126 513.241 231.77C516.449 231.26 519.629 230.588 522.768 229.754L523.094 219.963L524.726 227.797L543.012 216.374C543.012 216.374 542.852 214.315 542.542 211.158C542.388 209.558 542.196 207.729 541.966 205.719C541.785 204.119 541.577 202.407 541.348 200.663C541.291 200.226 541.232 199.788 541.171 199.351C540.931 197.591 540.67 195.81 540.387 194.072C540.281 193.417 540.17 192.77 540.057 192.13C539.907 191.277 539.753 190.44 539.593 189.629C539.511 189.224 539.429 188.824 539.347 188.429C539.265 188.035 539.182 187.647 539.096 187.267C539.011 186.886 538.924 186.515 538.835 186.152L538.702 185.619C538.613 185.263 538.522 184.918 538.43 184.584C538.048 183.192 537.826 181.76 537.768 180.318C537.747 179.742 537.747 179.168 537.768 178.595C537.79 178.023 537.843 177.451 537.928 176.878C537.967 176.594 538.014 176.309 538.067 176.025C538.278 174.889 538.588 173.773 538.995 172.692C539.198 172.148 539.425 171.614 539.678 171.092C540.27 169.86 540.905 168.521 541.555 167.113C541.883 166.402 542.213 165.682 542.548 164.954C542.882 164.225 543.216 163.478 543.551 162.714C546.751 155.52 549.866 147.499 550.704 142.23C550.794 141.697 550.853 141.163 550.89 140.662C550.932 140.196 550.943 139.727 550.922 139.259Z" fill="url(#paint2_linear)"/>
<path d="M496.369 119.175L485.599 111.891C485.599 111.891 468.497 105.56 463.729 115.373C458.96 125.186 484.314 120.125 484.314 120.125L495.083 126.14L496.369 119.175Z" fill="#F7BBC3"/>
<path d="M528.225 341.17C523.03 339.906 515.018 338.051 510.937 337.645C504.605 337.011 504.605 329.113 509.038 330.046C511.444 330.579 513.572 329.214 515.012 327.87C515.461 327.45 515.881 327.001 516.271 326.526C516.793 325.89 517.515 325.448 518.32 325.273C520.693 324.74 525.638 323.972 528.679 325.609C529.38 326.045 529.947 326.667 530.316 327.406C531.682 329.827 532.391 333.923 532.749 337.219C532.812 337.805 532.734 338.397 532.519 338.947C532.305 339.496 531.961 339.985 531.517 340.373C531.073 340.761 530.542 341.036 529.969 341.175C529.396 341.313 528.798 341.312 528.225 341.17Z" fill="#B77983"/>
<path d="M448.105 344.338C442.909 343.074 434.897 341.218 430.816 340.813C424.484 340.178 424.484 332.28 428.917 333.214C431.819 333.838 434.316 331.742 435.697 330.227C435.862 330.04 436.017 329.864 436.151 329.694C436.673 329.058 437.395 328.616 438.199 328.441C440.573 327.907 445.517 327.139 448.558 328.777C449.449 329.257 450.158 330.312 450.729 331.672C451.753 334.115 452.329 337.539 452.628 340.386C452.692 340.972 452.613 341.565 452.398 342.114C452.184 342.663 451.84 343.153 451.396 343.54C450.952 343.928 450.421 344.203 449.848 344.342C449.275 344.481 448.677 344.48 448.105 344.338Z" fill="#B77983"/>
<path opacity="0.1" d="M450.718 331.672C443.154 339.464 436.673 331.528 435.692 330.216C435.857 330.03 436.012 329.854 436.145 329.683C436.668 329.047 437.389 328.605 438.194 328.43C440.567 327.897 445.512 327.129 448.553 328.766C449.438 329.256 450.153 330.312 450.718 331.672Z" fill="black"/>
<path opacity="0.1" d="M530.311 327.406C527.036 329.646 516.004 329.091 516.004 329.091C515.644 328.707 515.313 328.297 515.012 327.864C515.461 327.445 515.881 326.996 516.271 326.52C516.793 325.884 517.515 325.443 518.319 325.267C520.693 324.734 525.638 323.966 528.679 325.603C529.379 326.042 529.944 326.666 530.311 327.406Z" fill="black"/>
<path d="M530.887 325.929C528.668 328.776 516.004 328.147 516.004 328.147C516.004 328.147 512.206 324.35 510.622 316.116C509.038 307.882 495.446 281.601 495.446 281.601C492.278 277.484 489.744 269.869 489.744 269.869L484.362 235.359C484.362 235.359 458.368 269.565 458.682 276.855C458.997 284.145 452.98 312.948 452.98 312.948C450.761 316.745 450.761 330.68 450.761 330.68C442.525 339.213 435.558 329.08 435.558 329.08C433.958 322.43 436.508 300.586 436.508 300.586C436.508 300.586 440.306 282.225 440.626 270.823C440.946 259.421 444.771 256.59 444.771 256.59C447.729 244.844 452.766 233.722 459.643 223.749C461.558 221.008 462.843 219.547 462.843 219.547L514.116 225.562C513.132 227.739 512.391 230.017 511.908 232.357C508.574 246.681 507.464 272.423 507.464 272.423C519.2 280.023 522.667 300.602 522.667 300.602C522.651 305.983 530.887 325.929 530.887 325.929Z" fill="#605D82"/>
<g opacity="0.05">
<path opacity="0.05" d="M481.508 239.594L480.852 235.375C480.852 235.375 454.906 269.565 455.199 276.855C455.493 284.145 449.497 312.949 449.497 312.949C447.278 316.746 447.278 330.681 447.278 330.681C445.953 332.184 444.238 333.291 442.322 333.88C444.819 334.536 447.849 334.056 451.081 330.681C451.081 330.681 451.081 316.751 453.3 312.949C453.3 312.949 459.317 284.151 459.002 276.855C458.752 271.165 474.611 248.964 481.508 239.594Z" fill="black"/>
<path opacity="0.05" d="M522.971 300.597C522.971 300.597 519.488 280.017 507.768 272.418C507.768 272.418 508.878 246.681 512.212 232.351C512.695 230.012 513.436 227.734 514.42 225.557L463.115 219.542L462.779 219.947L510.622 225.557C509.638 227.734 508.897 230.012 508.414 232.351C505.08 246.676 503.97 272.418 503.97 272.418C515.706 280.017 519.173 300.597 519.173 300.597C519.173 305.978 527.409 325.929 527.409 325.929C526.102 327.609 521.163 328.062 517.333 328.179C520.373 328.259 529.377 328.286 531.202 325.929C531.186 325.929 522.971 305.984 522.971 300.597Z" fill="black"/>
</g>
<path d="M453.306 215.11C452.924 216.047 452.42 216.929 451.807 217.734C449.902 220.299 445.939 223.691 438.69 222.763C438.156 222.693 437.65 222.487 437.22 222.164C436.791 221.84 436.452 221.411 436.237 220.919C436.022 220.426 435.939 219.886 435.995 219.351C436.05 218.816 436.244 218.305 436.556 217.867C438.418 215.275 441.511 212.07 446.104 210.55C447.414 210.115 448.772 209.84 450.148 209.729L453.306 215.11Z" fill="#F7BBC3"/>
<path d="M520.181 126.567L494.785 117.282C494.785 117.282 487.498 121.079 490.352 126.466L515.055 141.979L520.181 126.567Z" fill="#D9D9EA"/>
<path opacity="0.1" d="M520.181 126.567L494.785 117.282C494.785 117.282 487.498 121.079 490.352 126.466L515.055 141.979L520.181 126.567Z" fill="black"/>
<path d="M521.051 111.261C521.051 111.261 520.736 126.14 527.382 131.207C534.029 136.273 508.062 139.121 508.062 139.121C508.062 139.121 512.18 123.922 508.062 116.008C503.944 108.094 521.051 111.261 521.051 111.261Z" fill="#F7BBC3"/>
<path opacity="0.1" d="M514.116 225.563C513.132 227.739 512.391 230.017 511.908 232.357C481.278 237.034 459.963 224.293 459.963 224.293C459.845 224.112 459.733 223.925 459.632 223.76C461.547 221.019 462.832 219.558 462.832 219.558L514.116 225.563Z" fill="black"/>
<path opacity="0.1" d="M453.305 215.11C452.924 216.047 452.42 216.929 451.807 217.734C448.873 217.248 446.531 211.644 446.099 210.55C447.409 210.115 448.766 209.84 450.142 209.729L453.305 215.11Z" fill="black"/>
<path d="M523.606 124.562L512.206 128.679L507.454 135.009C507.454 135.009 497.639 138.177 496.369 138.177C495.099 138.177 491.616 139.441 489.402 144.507C487.189 149.573 479.267 174.27 472.301 178.387C465.334 182.504 446.963 210.049 446.963 210.049C446.963 210.049 450.132 218.582 453.93 217.334L462.8 210.049C462.8 210.049 455.834 217.014 459.952 223.349C459.952 223.349 485.919 238.863 521.707 229.365L522.021 219.867L523.622 227.466L541.321 216.379C541.321 216.379 539.721 195.943 536.872 185.539C535.686 181.167 536.12 176.513 538.094 172.436C542.692 162.836 549.786 146.838 548.922 141.019C547.903 134.145 544.015 131.159 542.521 130.252C542.181 130.048 541.801 129.922 541.406 129.884L535.64 129.308L523.606 124.562Z" fill="#D9D9EA"/>
<path opacity="0.05" d="M504.13 156.378C504.13 156.378 497.793 185.837 490.827 190.573C483.86 195.309 465.174 210.518 464.539 213.051" fill="black"/>
<path d="M501.277 155.439C501.277 155.439 494.945 184.877 487.978 189.624C481.012 194.37 462.326 209.569 461.691 212.102" fill="#D9D9EA"/>
<path opacity="0.1" d="M507.294 134.849C507.294 134.849 529.164 127.564 535.48 129.468L507.294 134.849Z" fill="black"/>
<g opacity="0.05">
<path opacity="0.05" d="M538.12 172.441C542.718 162.842 549.813 146.843 548.949 141.025C547.93 134.151 544.041 131.164 542.548 130.258C542.208 130.054 541.827 129.928 541.433 129.89L538.968 129.644C539.226 129.706 539.472 129.807 539.699 129.943C541.182 130.85 545.071 133.831 546.1 140.71C546.964 146.544 539.87 162.543 535.272 172.127C533.298 176.204 532.865 180.858 534.05 185.23C536.909 195.629 538.499 216.07 538.499 216.07L523.227 225.611L523.616 227.467L541.321 216.379C541.321 216.379 539.721 195.944 536.872 185.539C535.696 181.165 536.139 176.514 538.12 172.441Z" fill="black"/>
<path opacity="0.05" d="M532.791 128.993L535.533 129.271L523.606 124.562L522.539 124.946L532.791 128.993Z" fill="black"/>
</g>
<path opacity="0.05" d="M501.277 186.141C501.277 186.141 511.092 180.76 514.26 182.024C517.429 183.288 529.143 181.71 529.143 181.71" fill="black"/>
<path opacity="0.05" d="M519.984 115.218C519.621 112.019 521.093 112.552 521.093 112.552C521.093 112.552 503.981 109.363 508.088 117.277C509.131 119.459 509.73 121.826 509.849 124.242H510.009C514.756 124.242 517.53 118.93 519.984 115.218Z" fill="black"/>
<path d="M509.987 122.978C517.509 122.978 523.606 116.882 523.606 109.363C523.606 101.844 517.509 95.748 509.987 95.748C502.466 95.748 496.369 101.844 496.369 109.363C496.369 116.882 502.466 122.978 509.987 122.978Z" fill="#F7BBC3"/>
<path opacity="0.1" d="M524.849 113.389C526.086 110.68 526.982 107.742 526.838 104.766C526.694 101.79 525.355 98.7716 522.886 97.1077C521.605 96.2491 520.101 95.7851 518.778 95.0012C517.743 94.3879 516.831 93.5933 515.844 92.9053C513.431 91.2652 510.627 90.2902 507.717 90.0786C504.806 89.867 501.891 90.4263 499.265 91.7001C496.764 92.9533 494.635 94.8198 492.278 96.3237C489.92 97.8276 487.141 98.9902 484.378 98.5369C483.903 99.8542 485.066 101.155 486.143 102.057C488.181 103.763 490.491 105.47 493.147 105.528C494.177 105.528 495.281 105.331 496.193 105.763C496.823 106.109 497.358 106.606 497.751 107.208C499.029 108.907 500.111 110.744 500.978 112.685C501.335 113.48 501.693 114.344 502.423 114.818C503.645 115.602 505.235 114.952 506.691 114.893C508.947 114.808 510.958 116.226 512.644 117.741C514.329 119.255 515.903 120.994 518.01 121.794C519.61 122.391 522.731 122.37 523.531 120.493C523.835 119.783 523.254 118.264 523.371 117.4C523.558 115.976 524.251 114.653 524.849 113.389Z" fill="black"/>
<path d="M525.163 113.075C526.401 110.366 527.297 107.427 527.153 104.451C527.009 101.476 525.67 98.4571 523.2 96.7932C521.92 95.9346 520.416 95.4707 519.093 94.6867C518.058 94.0734 517.146 93.2788 516.159 92.5909C513.745 90.9508 510.942 89.9758 508.031 89.7642C505.121 89.5526 502.206 90.1118 499.58 91.3856C497.078 92.6389 494.95 94.5054 492.592 96.0093C490.235 97.5132 487.455 98.6758 484.692 98.2225C484.218 99.5397 485.38 100.841 486.458 101.742C488.496 103.449 490.805 105.155 493.462 105.214C494.491 105.214 495.595 105.017 496.508 105.449C497.138 105.795 497.673 106.291 498.065 106.894C499.35 108.59 500.44 110.425 501.314 112.365C501.671 113.16 502.029 114.024 502.759 114.499C503.981 115.283 505.571 114.632 507.027 114.573C509.283 114.488 511.294 115.907 512.98 117.421C514.665 118.936 516.239 120.674 518.346 121.474C519.946 122.071 523.067 122.05 523.867 120.173C524.171 119.464 523.59 117.944 523.707 117.08C523.872 115.677 524.587 114.333 525.163 113.075Z" fill="#A1616A"/>
<defs>
<linearGradient id="paint0_linear" x1="285.276" y1="333.56" x2="285.276" y2="43.4475" gradientUnits="userSpaceOnUse">
<stop stop-color="#808080" stop-opacity="0.25"/>
<stop offset="0.54" stop-color="#808080" stop-opacity="0.12"/>
<stop offset="1" stop-color="#808080" stop-opacity="0.1"/>
</linearGradient>
<linearGradient id="paint1_linear" x1="64858.1" y1="32538.7" x2="64858.1" y2="23526" gradientUnits="userSpaceOnUse">
<stop stop-color="#808080" stop-opacity="0.25"/>
<stop offset="0.54" stop-color="#808080" stop-opacity="0.12"/>
<stop offset="1" stop-color="#808080" stop-opacity="0.1"/>
</linearGradient>
<linearGradient id="paint2_linear" x1="122047" y1="185721" x2="122047" y2="56387.6" gradientUnits="userSpaceOnUse">
<stop stop-color="#808080" stop-opacity="0.25"/>
<stop offset="0.54" stop-color="#808080" stop-opacity="0.12"/>
<stop offset="1" stop-color="#808080" stop-opacity="0.1"/>
</linearGradient>
</defs>
</svg>
