<svg width="98" height="137" viewBox="0 0 98 137" fill="none" xmlns="http://www.w3.org/2000/svg">
<path d="M96.1195 16.5586C96.1195 16.5586 96.1082 17.0416 95.9723 18.0793C95.8572 19.0246 95.8232 20.4736 95.5212 22.2508C95.3118 24.0489 94.906 26.2884 94.5305 28.8261C94.2607 30.0279 93.9493 31.4146 93.7304 32.8221C93.419 34.2089 92.9945 35.6673 92.6416 37.2389C91.7717 40.2482 90.8396 43.5349 89.5169 46.8309C88.2659 50.2402 86.7168 53.6797 84.962 57.17C83.2072 60.6604 81.2468 64.2017 78.9883 67.7732C76.843 71.273 74.3278 74.6898 71.741 77.9934C69.1542 81.297 66.3108 84.4458 63.4165 87.389C60.5222 90.3322 57.4844 93.049 54.3958 95.5601C52.8618 96.7695 51.3279 97.9788 49.7222 99.075C48.209 100.192 46.6242 101.196 45.1317 102.22C43.6393 103.244 42.0959 104.063 40.6243 104.995C39.0809 105.814 37.6507 106.561 36.2206 107.308C34.8112 107.963 33.4735 108.731 32.1056 109.2C30.8094 109.783 29.5339 110.274 28.3509 110.785C27.1887 111.204 26.0264 111.623 24.9774 111.97C23.9284 112.317 22.9001 112.572 22.0567 112.868C21.2134 113.164 20.3907 113.368 19.6813 113.5C18.9719 113.632 18.355 113.785 17.9436 113.887C17.0286 114.07 16.504 114.243 16.504 114.243C16.0003 114.324 15.5796 114.036 15.406 113.511C15.3041 113.1 15.5004 112.658 15.9324 112.464C15.9324 112.464 16.3645 112.27 17.3211 111.902C18.1852 111.513 19.5531 111.043 21.1889 110.245C22.0531 109.857 22.9172 109.468 23.8945 109.008C24.8719 108.547 25.9624 108.015 27.053 107.483C29.3265 106.44 31.7755 105.048 34.5226 103.625C35.8603 102.857 37.1981 102.09 38.649 101.25C40.0074 100.39 41.5508 99.5709 42.9508 98.5257C45.8942 96.6617 48.8998 94.5204 51.9469 92.1941C52.6677 91.5791 53.4809 90.9848 54.2016 90.3698C54.9224 89.7547 55.7356 89.1604 56.4771 88.4529C57.1978 87.8379 57.9393 87.1304 58.7525 86.5361C59.494 85.8286 60.2148 85.2135 60.9563 84.506C63.9016 81.7685 66.7959 78.8253 69.4336 75.7274C72.0714 72.6295 74.7299 69.4391 76.9469 66.0525C79.2564 62.6866 81.3602 59.3717 83.2074 55.9021C83.6923 55.0399 84.0848 54.1569 84.5489 53.3871C84.9414 52.5042 85.4055 51.7344 85.798 50.8514C86.5622 49.1779 87.3264 47.5044 87.8849 45.8818C89.2076 42.5858 90.2114 39.4123 91.153 36.5162C91.5776 35.0578 91.9097 33.5786 92.221 32.1919C92.5324 30.8052 92.823 29.5109 93.0004 28.2883C93.1778 27.0657 93.4476 25.8639 93.5835 24.8262C93.7194 23.7885 93.8552 22.7508 93.9496 21.898C94.1591 20.0999 94.2856 18.6717 94.3082 17.7057C94.3309 16.7397 94.4554 16.185 94.4554 16.185C94.4668 15.702 94.9404 15.3228 95.4234 15.3341C95.7516 15.602 96.1309 16.0756 96.1195 16.5586Z" fill="#D5D2F5"/>
<path d="M23.7394 123.539C22.8357 123.239 22.0244 122.96 21.1207 122.66C20.1962 122.452 19.3849 122.173 18.4604 121.966C16.7039 121.571 14.8341 121.248 13.0153 121.131C12.0701 121.016 11.1965 121.014 10.2513 120.899C9.37774 120.897 8.41173 120.875 7.53817 120.873C5.67786 120.941 3.90999 121.029 2.12137 121.21C1.22706 121.301 0.406361 120.631 0.315826 119.737C0.306406 119.346 0.389436 118.976 0.544155 118.72L0.698863 118.463L1.95738 116.318C2.40079 115.641 2.8442 114.963 3.30835 114.194C3.75176 113.516 4.19516 112.839 4.63856 112.162L5.96876 110.13C6.85557 108.775 7.83482 107.441 8.81408 106.107C9.88578 104.794 10.9367 103.574 12.1726 102.394C12.5537 101.994 13.2216 102.047 13.5084 102.5C13.7442 102.747 13.8668 103.066 13.8046 103.343C13.6177 104.175 13.246 104.966 12.9668 105.777C12.6875 106.589 12.3158 107.379 11.9649 108.077C11.2422 109.566 10.4271 111.034 9.51952 112.481C8.63271 113.835 7.6327 115.262 6.65345 116.596C5.67419 117.929 4.60248 119.243 3.53078 120.556L2.08752 117.901C3.05352 117.924 3.99877 118.039 4.96477 118.061C5.91002 118.177 6.85526 118.292 7.80051 118.407C8.74575 118.522 9.691 118.637 10.6362 118.752C11.5815 118.867 12.506 119.075 13.4512 119.19C14.3965 119.305 15.321 119.513 16.2455 119.72L19.0189 120.343C19.9434 120.551 20.8887 120.666 21.7924 120.966L24.5659 121.588C25.0281 121.692 25.2734 122.33 25.1696 122.792C24.8601 123.305 24.2941 123.664 23.7394 123.539C23.8526 123.468 23.8319 123.56 23.7394 123.539Z" fill="#D5D2F5"/>
</svg>
