<svg width="215" height="68" viewBox="0 0 215 68" fill="none" xmlns="http://www.w3.org/2000/svg">
<path d="M49.5554 27.8324C41.5455 27.8324 35.5139 33.8117 35.5139 42.395C35.5139 51.2193 41.7868 57.054 50.0862 57.054C55.78 57.054 59.8815 54.7877 62.2941 51.7016L57.3723 47.1206C55.8282 49.0012 53.5604 50.3514 50.617 50.3031C46.998 50.2549 44.2959 48.2297 43.4273 44.9025H63.2591C63.4039 44.372 63.4522 43.0701 63.4522 42.2021C63.4039 33.9082 57.8549 27.8324 49.5554 27.8324ZM43.4273 39.4535C44.2959 36.1745 46.7085 34.4868 49.7967 34.4868C53.0779 34.4868 55.1527 36.4156 55.9247 39.4535H43.4273Z" fill="white"/>
<path d="M117.833 42.0093C117.833 47.5065 114.841 50.255 111.56 50.255C108.037 50.255 106.493 48.5673 106.493 43.3595V28.3147H98.9177V45.3365C98.9177 53.968 103.212 57.0541 109.34 57.0541C112.525 57.0541 115.517 55.704 117.736 53.1483H117.833V56.5719H125.408V28.3147H117.833V42.0093Z" fill="white"/>
<path d="M24.6571 41.6238V41.5274C29.8683 39.7914 33.1013 35.6927 33.1013 29.1347C33.1013 21.2747 28.7103 15.4401 18.7703 15.4401H14.138H3.23292H5.89021e-06L4.72875 22.6731H11.2429H14.138H17.3227C22.0514 22.6731 24.7053 25.1806 24.7053 28.99C24.7053 32.7995 22.0032 35.3069 16.9849 35.3069H11.2911L16.0199 42.4918L25.2361 56.5722H34.8866L24.6571 41.6238Z" fill="white"/>
<path d="M8.83028 56.5721C11.6018 56.5721 13.8485 54.3268 13.8485 51.5572C13.8485 48.7875 11.6018 46.5422 8.83028 46.5422C6.05877 46.5422 3.81201 48.7875 3.81201 51.5572C3.81201 54.3268 6.05877 56.5721 8.83028 56.5721Z" fill="#6BF6FF"/>
<path d="M82.8496 27.8324C79.3754 27.8324 76.3838 29.0861 74.2606 31.5454H74.1642V28.3146H66.5885V68.0001H74.1642V57.2951V44.9025V40.1286C75.0327 36.8496 77.6866 34.6315 81.2573 34.6315C85.3105 34.6315 88.4952 37.7176 88.4952 42.5397C88.4952 47.1206 85.5035 50.2549 81.2573 50.2549C80.051 50.2549 78.9412 50.0138 77.9279 49.5316V56.1378C79.3272 56.7165 80.8713 57.054 82.6084 57.054C90.4253 57.054 96.1673 51.2676 96.1673 42.5397C96.1673 33.9082 90.4253 27.8324 82.8496 27.8324Z" fill="white"/>
<path d="M145.916 28.315H138.244V18.2369L130.765 19.0567V49.5803C131.392 54.5952 134.383 57.0544 138.726 57.0544C142.538 57.0544 144.42 56.2829 146.205 55.2703L144.275 49.2427C143.021 49.8696 141.573 50.2554 140.705 50.2554C138.919 50.2554 138.195 49.0499 138.195 46.6388V34.6319H142.249L145.868 28.5079V28.315H145.916Z" fill="white"/>
<path d="M168.691 43.7935L168.643 44.6614C168.594 45.433 168.643 46.2527 168.884 47.1207C168.932 47.3618 168.98 47.6029 169.029 47.844L169.077 48.0851V43.7452H168.691V43.7935Z" fill="black"/>
<path d="M167.581 28.3146V31.4972H167.485C165.41 29.0861 162.466 27.8324 159.137 27.8324C151.561 27.8324 145.819 33.9564 145.819 42.5397C145.819 51.2676 151.513 57.054 159.378 57.054C163.046 57.054 165.892 55.6556 167.823 53.1482H167.967V56.5718H175.157V28.3146H167.581ZM160.729 50.2549C156.483 50.2549 153.491 47.1206 153.491 42.5397C153.491 37.7176 156.676 34.6315 160.778 34.6315C164.879 34.6315 167.919 38.0069 167.919 42.5397C167.919 47.1688 164.686 50.2549 160.729 50.2549Z" fill="white"/>
<path d="M180.345 20.1346C180.345 23.8635 183.321 26.8843 187.005 26.8371C190.547 26.7427 193.428 23.8635 193.428 20.0874C193.428 16.3113 190.5 13.3376 186.863 13.3848C183.179 13.3848 180.392 16.4057 180.345 20.1346Z" fill="white"/>
<path d="M206.284 18.587C205.764 13.3949 203.544 9.00516 199.766 5.60668C198.018 4.04905 196.034 2.82182 193.767 2.0194C191.358 1.16978 188.808 0.744972 186.163 0.886575C183.99 0.980977 181.912 1.45298 179.975 2.2082C176.622 3.57703 173.882 5.74828 171.757 8.62754C171.71 8.67475 171.71 8.67475 171.662 8.72195C171.568 8.81635 171.473 8.95795 171.379 9.09955C171.332 9.19396 171.284 9.28836 171.284 9.38276C171.143 9.47717 171.048 9.61877 170.907 9.85477L170.765 10.138C170.623 10.374 170.529 10.6572 170.387 10.8932C170.34 10.9876 170.245 11.1292 170.198 11.2236C170.104 11.4124 169.962 11.6012 169.82 11.8372C169.017 13.5365 168.498 15.0941 168.309 16.5573C168.167 17.4069 168.073 18.3038 168.025 19.1534C167.978 19.4838 167.978 19.8614 167.931 20.1918C167.931 20.2862 167.931 20.4278 167.931 20.5222V21.5606H175.016V20.6166C175.063 18.0678 175.63 15.8021 176.858 13.7253L177 13.4893C177.094 13.3949 177.236 13.3005 177.377 13.1588C178.7 11.2708 180.495 9.85478 182.667 8.95796C184.604 8.15554 186.635 7.91953 188.666 8.20274C192.397 8.72195 195.279 10.61 197.31 13.7725C198.396 15.4717 199.01 17.4541 199.199 19.6254C199.341 21.5606 199.057 23.5431 198.301 25.6199C197.168 28.8296 195.279 31.4729 192.492 33.7385C191.169 34.8241 189.941 35.7682 188.76 36.8538C187.107 38.317 185.879 40.205 185.076 42.4235L184.793 43.1787L184.84 43.2259C184.746 43.4619 184.651 43.6979 184.557 43.9339C184.321 44.5003 184.084 45.0667 183.848 45.6332C183.14 47.2852 182.148 48.3708 180.825 49.0316C180.117 49.362 179.314 49.4565 178.464 49.3148V56.5838C178.747 56.631 179.078 56.631 179.361 56.631C180.967 56.631 182.526 56.2534 183.99 55.5454C186.021 54.507 187.674 52.9965 188.997 51.0613C190.272 49.1732 191.028 47.002 191.642 45.1611C192.02 44.0283 192.681 43.0371 193.578 42.2347C194.712 41.2435 195.845 40.2994 196.884 39.497C199.624 37.2786 201.797 34.6825 203.355 31.7561C204.3 29.9624 205.056 28.0744 205.575 26.0919C206.284 23.5431 206.52 21.0414 206.284 18.587Z" fill="white"/>
<path d="M203.107 3.63448L206.555 -5.76185e-06C206.555 -5.76185e-06 213.168 6.23053 214.396 15.1043C214.396 15.1043 216.191 21.9957 213.593 30.1143C213.593 30.1143 211.562 36.7696 206.65 41.9145L203.06 38.1856C203.06 38.1856 208.917 31.0111 209.625 23.7421C209.625 23.7421 210.995 15.718 206.555 8.63779C206.555 8.63779 205.375 6.32495 203.06 3.96489L202.966 3.77608L203.107 3.63448Z" fill="#6BF6FF"/>
</svg>
