<svg width="186" height="59" viewBox="0 0 186 59" fill="none" xmlns="http://www.w3.org/2000/svg">
<path d="M42.8228 24.0437C35.9011 24.0437 30.689 29.2091 30.689 36.624C30.689 44.2472 36.1096 49.2876 43.2815 49.2876C48.2018 49.2876 51.746 47.3298 53.8309 44.6638L49.5778 40.7064C48.2434 42.331 46.2837 43.4974 43.7402 43.4557C40.6129 43.414 38.2778 41.6645 37.5273 38.7902H54.6648C54.7899 38.3319 54.8316 37.2072 54.8316 36.4574C54.7899 29.2924 49.9947 24.0437 42.8228 24.0437ZM37.5273 34.083C38.2778 31.2503 40.3627 29.7923 43.0313 29.7923C45.8667 29.7923 47.6597 31.4586 48.3268 34.083H37.5273Z" fill="#5481DF"/>
<path d="M101.824 36.2909C101.824 41.0398 99.2391 43.4142 96.4037 43.4142C93.3598 43.4142 92.0255 41.9562 92.0255 37.4573V24.4605H85.479V39.1652C85.479 46.6218 89.19 49.2878 94.4856 49.2878C97.2376 49.2878 99.8228 48.1214 101.741 45.9136H101.824V48.8712H108.371V24.4605H101.824V36.2909Z" fill="#5481DF"/>
<path d="M21.3072 35.9578V35.8745C25.8105 34.3749 28.6042 30.8341 28.6042 25.1687C28.6042 18.3787 24.8098 13.3383 16.2202 13.3383H12.2173H2.79371H5.08998e-06L4.08632 19.5868H9.71543H12.2173H14.9693C19.0556 19.5868 21.3489 21.7529 21.3489 25.0438C21.3489 28.3347 19.0139 30.5008 14.6774 30.5008H9.75713L13.8434 36.7076L21.8076 48.8714H30.147L21.3072 35.9578Z" fill="#5481DF"/>
<path d="M7.63069 48.8714C10.0257 48.8714 11.9672 46.9317 11.9672 44.5391C11.9672 42.1464 10.0257 40.2068 7.63069 40.2068C5.23571 40.2068 3.29419 42.1464 3.29419 44.5391C3.29419 46.9317 5.23571 48.8714 7.63069 48.8714Z" fill="#1AD3DF"/>
<path d="M71.5939 24.0437C68.5917 24.0437 66.0065 25.1268 64.1718 27.2513H64.0885V24.4603H57.542V58.7437H64.0885V49.4959V38.7902V34.6662C64.839 31.8335 67.1323 29.9173 70.2179 29.9173C73.7205 29.9173 76.4725 32.5833 76.4725 36.749C76.4725 40.7064 73.8873 43.4141 70.2179 43.4141C69.1755 43.4141 68.2165 43.2058 67.3408 42.7892V48.4962C68.55 48.996 69.8844 49.2876 71.3854 49.2876C78.1404 49.2876 83.1023 44.2888 83.1023 36.749C83.1023 29.2924 78.1404 24.0437 71.5939 24.0437Z" fill="#5481DF"/>
<path d="M126.092 24.4606H119.462V15.7544L112.999 16.4626V42.8312C113.541 47.1635 116.127 49.288 119.879 49.288C123.173 49.288 124.8 48.6215 126.342 47.7467L124.674 42.5396C123.59 43.0812 122.339 43.4144 121.589 43.4144C120.046 43.4144 119.421 42.373 119.421 40.2902V29.9177H122.923L126.05 24.6273V24.4606H126.092Z" fill="#5481DF"/>
<path d="M145.773 37.8322L145.732 38.582C145.69 39.2485 145.732 39.9567 145.94 40.7065C145.982 40.9148 146.023 41.1231 146.065 41.3313L146.107 41.5396V37.7905H145.773V37.8322Z" fill="black"/>
<path d="M144.814 24.4603V27.2096H144.731C142.938 25.1268 140.394 24.0437 137.517 24.0437C130.971 24.0437 126.009 29.3341 126.009 36.749C126.009 44.2888 130.929 49.2876 137.726 49.2876C140.895 49.2876 143.355 48.0796 145.023 45.9135H145.148V48.8711H151.361V24.4603H144.814ZM138.893 43.4141C135.224 43.4141 132.639 40.7064 132.639 36.749C132.639 32.5833 135.391 29.9173 138.935 29.9173C142.479 29.9173 145.106 32.8333 145.106 36.749C145.106 40.748 142.312 43.4141 138.893 43.4141Z" fill="#5481DF"/>
<path d="M155.844 17.3938C155.844 20.6151 158.415 23.2248 161.599 23.184C164.66 23.1025 167.15 20.6151 167.15 17.353C167.15 14.091 164.619 11.5221 161.477 11.5629C158.293 11.5629 155.885 14.1725 155.844 17.3938Z" fill="#5481DF"/>
<path d="M178.259 16.0568C177.81 11.5715 175.891 7.77932 172.626 4.84345C171.116 3.49785 169.402 2.43767 167.443 1.74448C165.361 1.01051 163.157 0.643529 160.871 0.765857C158.994 0.847409 157.198 1.25516 155.524 1.90758C152.627 3.09008 150.259 4.96578 148.423 7.45311C148.382 7.49389 148.382 7.49389 148.341 7.53467C148.259 7.61622 148.178 7.73855 148.096 7.86087C148.055 7.94243 148.014 8.02398 148.014 8.10553C147.892 8.18708 147.81 8.30941 147.688 8.51329L147.565 8.75795C147.443 8.96183 147.361 9.20649 147.239 9.41037C147.198 9.49192 147.116 9.61424 147.076 9.69579C146.994 9.8589 146.872 10.022 146.749 10.2259C146.055 11.6938 145.606 13.0394 145.443 14.3035C145.321 15.0375 145.239 15.8122 145.198 16.5462C145.157 16.8316 145.157 17.1578 145.116 17.4432C145.116 17.5248 145.116 17.6471 145.116 17.7287V18.6257H151.239V17.8102C151.28 15.6083 151.769 13.6511 152.831 11.8569L152.953 11.653C153.035 11.5715 153.157 11.4899 153.28 11.3676C154.422 9.73657 155.973 8.51329 157.851 7.73855C159.524 7.04536 161.279 6.84148 163.035 7.08613C166.259 7.53467 168.749 9.1657 170.504 11.8977C171.443 13.3656 171.973 15.0782 172.136 16.9539C172.259 18.6257 172.014 20.3383 171.361 22.1325C170.381 24.9052 168.749 27.1887 166.341 29.1459C165.198 30.0838 164.137 30.8993 163.116 31.8372C161.688 33.1012 160.626 34.7322 159.933 36.6487L159.688 37.3011L159.728 37.3419C159.647 37.5458 159.565 37.7497 159.484 37.9535C159.279 38.4429 159.075 38.9322 158.871 39.4215C158.259 40.8486 157.402 41.7865 156.259 42.3573C155.647 42.6428 154.953 42.7243 154.218 42.602V48.8815C154.463 48.9223 154.749 48.9223 154.994 48.9223C156.382 48.9223 157.728 48.5961 158.994 47.9844C160.749 47.0873 162.177 45.7825 163.32 44.1107C164.422 42.4797 165.075 40.604 165.606 39.0137C165.932 38.0351 166.504 37.1788 167.279 36.4856C168.259 35.6293 169.238 34.8138 170.136 34.1206C172.504 32.2041 174.381 29.9614 175.728 27.4333C176.544 25.8839 177.198 24.2528 177.646 22.5402C178.259 20.3383 178.463 18.1772 178.259 16.0568Z" fill="#5481DF"/>
<path d="M175.514 3.13975L178.493 -4.97753e-06C178.493 -4.97753e-06 184.208 5.38242 185.269 13.0483C185.269 13.0483 186.82 19.0016 184.575 26.0151C184.575 26.0151 182.82 31.7645 178.575 36.2091L175.473 32.9878C175.473 32.9878 180.534 26.7898 181.146 20.5103C181.146 20.5103 182.33 13.5784 178.493 7.462C178.493 7.462 177.473 5.46398 175.473 3.42519L175.391 3.26207L175.514 3.13975Z" fill="#1AD3DF"/>
</svg>
