<svg width="18" height="18" viewBox="0 0 18 18" fill="none" xmlns="http://www.w3.org/2000/svg">
<path d="M9 0C4.01538 0 0 4.01538 0 9C0 13.9846 4.01538 18 9 18C13.9846 18 18 13.9846 18 9C18 4.01538 13.9846 0 9 0ZM9 15.2308C5.53846 15.2308 2.76923 12.4615 2.76923 9C2.76923 5.53846 5.53846 2.76923 9 2.76923C12.4615 2.76923 15.2308 5.53846 15.2308 9C15.2308 12.4615 12.4615 15.2308 9 15.2308Z" fill="#34CA1B"/>
<path d="M11.9769 6.43865C11.8384 6.30019 11.6307 6.23096 11.4923 6.23096C11.3538 6.23096 11.1461 6.30019 11.0077 6.43865L8.51536 8.72327C8.3769 8.86173 8.16921 8.86173 8.03075 8.72327L6.99228 7.82326C6.71536 7.54634 6.29998 7.54634 6.02305 7.82326L5.05382 8.7925C4.91536 8.93096 4.84613 9.13865 4.84613 9.27711C4.84613 9.41557 4.91536 9.62327 5.05382 9.76173L7.82305 12.254C7.96152 12.3925 8.09998 12.4617 8.30767 12.4617C8.51536 12.4617 8.65382 12.3925 8.79228 12.254L12.9461 8.37711C13.0846 8.23865 13.1538 8.03096 13.1538 7.8925C13.1538 7.75403 13.0846 7.54634 12.9461 7.40788L11.9769 6.43865V6.43865Z" fill="#34CA1B"/>
</svg>
